<?xml version="1.0" encoding="UTF-8" standalone="no"?>
<!-- Created with Inkscape (http://www.inkscape.org/) -->

<svg
   xmlns:dc="http://purl.org/dc/elements/1.1/"
   xmlns:cc="http://creativecommons.org/ns#"
   xmlns:rdf="http://www.w3.org/1999/02/22-rdf-syntax-ns#"
   xmlns:svg="http://www.w3.org/2000/svg"
   xmlns="http://www.w3.org/2000/svg"
   xmlns:xlink="http://www.w3.org/1999/xlink"
   xmlns:sodipodi="http://sodipodi.sourceforge.net/DTD/sodipodi-0.dtd"
   xmlns:inkscape="http://www.inkscape.org/namespaces/inkscape"
   width="744.09448819"
   height="1052.3622047"
   id="svg4850"
   version="1.1"
   inkscape:version="0.48.4 r9939"
   sodipodi:docname="HybridCheck_HexLogo.svg">
  <defs
     id="defs4852">
    <linearGradient
       inkscape:collect="always"
       xlink:href="#linearGradient5838-1"
       id="linearGradient4465"
       gradientUnits="userSpaceOnUse"
       x1="1187.6556"
       y1="157.1241"
       x2="1186.9478"
       y2="72.044724" />
    <linearGradient
       inkscape:collect="always"
       id="linearGradient5838-1">
      <stop
         style="stop-color:#ff0000;stop-opacity:1;"
         offset="0"
         id="stop5840-1" />
      <stop
         style="stop-color:#ff0000;stop-opacity:0;"
         offset="1"
         id="stop5842-0" />
    </linearGradient>
    <linearGradient
       inkscape:collect="always"
       xlink:href="#linearGradient5846-8"
       id="linearGradient4467"
       gradientUnits="userSpaceOnUse"
       x1="1135.5919"
       y1="22.520924"
       x2="1195.8365"
       y2="91.092361" />
    <linearGradient
       inkscape:collect="always"
       id="linearGradient5846-8">
      <stop
         style="stop-color:#00ff00;stop-opacity:1;"
         offset="0"
         id="stop5848-5" />
      <stop
         style="stop-color:#00ff00;stop-opacity:0;"
         offset="1"
         id="stop5850-9" />
    </linearGradient>
    <linearGradient
       inkscape:collect="always"
       xlink:href="#linearGradient5854-0"
       id="linearGradient4469"
       gradientUnits="userSpaceOnUse"
       x1="1237.1793"
       y1="25.060608"
       x2="1181.8683"
       y2="78.393944" />
    <linearGradient
       inkscape:collect="always"
       id="linearGradient5854-0">
      <stop
         style="stop-color:#0000ff;stop-opacity:1;"
         offset="0"
         id="stop5856-79" />
      <stop
         style="stop-color:#0000ff;stop-opacity:0;"
         offset="1"
         id="stop5858-9" />
    </linearGradient>
    <clipPath
       clipPathUnits="userSpaceOnUse"
       id="clipPath6750">
      <g
         id="g6752"
         transform="matrix(2.4716708,0,0,2.4716708,-1668.3136,77.839419)">
        <path
           transform="translate(-320.8539,16.50793)"
           d="m 1230.4762,160.93362 -89.3048,-0.24014 -44.4445,-77.460312 44.8604,-77.2201765 89.3048,0.2401367 44.4445,77.4603128 z"
           inkscape:randomized="0"
           inkscape:rounded="0"
           inkscape:flatsided="true"
           sodipodi:arg2="1.5734853"
           sodipodi:arg1="1.0498865"
           sodipodi:r2="77.340523"
           sodipodi:r1="89.305145"
           sodipodi:cy="83.473305"
           sodipodi:cx="1186.0317"
           sodipodi:sides="6"
           id="path6754"
           style="fill:url(#linearGradient6762);fill-opacity:1;stroke:none"
           sodipodi:type="star" />
        <path
           transform="translate(-320.8539,16.50793)"
           d="m 1230.4762,160.93362 -89.3048,-0.24014 -44.4445,-77.460312 44.8604,-77.2201765 89.3048,0.2401367 44.4445,77.4603128 z"
           inkscape:randomized="0"
           inkscape:rounded="0"
           inkscape:flatsided="true"
           sodipodi:arg2="1.5734853"
           sodipodi:arg1="1.0498865"
           sodipodi:r2="77.340523"
           sodipodi:r1="89.305145"
           sodipodi:cy="83.473305"
           sodipodi:cx="1186.0317"
           sodipodi:sides="6"
           id="path6756"
           style="fill:url(#linearGradient6764);fill-opacity:1;stroke:none"
           sodipodi:type="star" />
        <path
           transform="translate(-320.3539,16.00793)"
           d="m 1230.4762,160.93362 -89.3048,-0.24014 -44.4445,-77.460312 44.8604,-77.2201765 89.3048,0.2401367 44.4445,77.4603128 z"
           inkscape:randomized="0"
           inkscape:rounded="0"
           inkscape:flatsided="true"
           sodipodi:arg2="1.5734853"
           sodipodi:arg1="1.0498865"
           sodipodi:r2="77.340523"
           sodipodi:r1="89.305145"
           sodipodi:cy="83.473305"
           sodipodi:cx="1186.0317"
           sodipodi:sides="6"
           id="path6758"
           style="fill:url(#linearGradient6766);fill-opacity:1;stroke:none"
           sodipodi:type="star" />
        <path
           transform="translate(-319.45392,16.307565)"
           d="m 1230.4762,160.93362 -89.3048,-0.24014 -44.4445,-77.460312 44.8604,-77.2201765 89.3048,0.2401367 44.4445,77.4603128 z"
           inkscape:randomized="0"
           inkscape:rounded="0"
           inkscape:flatsided="true"
           sodipodi:arg2="1.5734853"
           sodipodi:arg1="1.0498865"
           sodipodi:r2="77.340523"
           sodipodi:r1="89.305145"
           sodipodi:cy="83.473305"
           sodipodi:cx="1186.0317"
           sodipodi:sides="6"
           id="path6760"
           style="fill:none;stroke:#000000;stroke-width:3;stroke-miterlimit:4;stroke-opacity:1;stroke-dasharray:none"
           sodipodi:type="star" />
      </g>
    </clipPath>
  </defs>
  <sodipodi:namedview
     id="base"
     pagecolor="#ffffff"
     bordercolor="#666666"
     borderopacity="1.0"
     inkscape:pageopacity="0.0"
     inkscape:pageshadow="2"
     inkscape:zoom="1.4"
     inkscape:cx="557.66919"
     inkscape:cy="468.76752"
     inkscape:document-units="px"
     inkscape:current-layer="g4779"
     showgrid="false"
     inkscape:window-width="1855"
     inkscape:window-height="1056"
     inkscape:window-x="65"
     inkscape:window-y="24"
     inkscape:window-maximized="1" />
  <metadata
     id="metadata4855">
    <rdf:RDF>
      <cc:Work
         rdf:about="">
        <dc:format>image/svg+xml</dc:format>
        <dc:type
           rdf:resource="http://purl.org/dc/dcmitype/StillImage" />
        <dc:title />
      </cc:Work>
    </rdf:RDF>
  </metadata>
  <g
     inkscape:label="Layer 1"
     inkscape:groupmode="layer"
     id="layer1">
    <g
       transform="translate(-857.15275,402.58769)"
       id="g4779">
      <g
         id="g3045">
        <g
           id="g4458"
           transform="matrix(0.99999667,-0.0025789,0.0025789,0.99999667,-20.149643,39.393139)">
          <path
             sodipodi:type="star"
             style="fill:#ffffff;fill-opacity:1;stroke:none"
             id="path5774-3-7-5-2-5"
             sodipodi:sides="6"
             sodipodi:cx="1186.0317"
             sodipodi:cy="83.473305"
             sodipodi:r1="89.305145"
             sodipodi:r2="77.340523"
             sodipodi:arg1="1.0498865"
             sodipodi:arg2="1.5734853"
             inkscape:flatsided="true"
             inkscape:rounded="0"
             inkscape:randomized="0"
             d="m 1230.4762,160.93362 -89.3048,-0.24014 -44.4445,-77.460312 44.8604,-77.2201765 89.3048,0.2401367 44.4445,77.4603128 z"
             transform="matrix(2.0493517,0,0,2.0493517,-1099.3252,42.87006)" />
          <path
             sodipodi:type="star"
             style="fill:url(#linearGradient4465);fill-opacity:1;stroke:none"
             id="path5774-3-1"
             sodipodi:sides="6"
             sodipodi:cx="1186.0317"
             sodipodi:cy="83.473305"
             sodipodi:r1="89.305145"
             sodipodi:r2="77.340523"
             sodipodi:arg1="1.0498865"
             sodipodi:arg2="1.5734853"
             inkscape:flatsided="true"
             inkscape:rounded="0"
             inkscape:randomized="0"
             d="m 1230.4762,160.93362 -89.3048,-0.24014 -44.4445,-77.460312 44.8604,-77.2201765 89.3048,0.2401367 44.4445,77.4603128 z"
             transform="matrix(2.0493517,0,0,2.0493517,-1099.3252,42.87006)" />
          <path
             sodipodi:type="star"
             style="fill:url(#linearGradient4467);fill-opacity:1;stroke:none"
             id="path5774-3-7-4"
             sodipodi:sides="6"
             sodipodi:cx="1186.0317"
             sodipodi:cy="83.473305"
             sodipodi:r1="89.305145"
             sodipodi:r2="77.340523"
             sodipodi:arg1="1.0498865"
             sodipodi:arg2="1.5734853"
             inkscape:flatsided="true"
             inkscape:rounded="0"
             inkscape:randomized="0"
             d="m 1230.4762,160.93362 -89.3048,-0.24014 -44.4445,-77.460312 44.8604,-77.2201765 89.3048,0.2401367 44.4445,77.4603128 z"
             transform="matrix(2.0493517,0,0,2.0493517,-1099.3252,42.87006)" />
          <path
             sodipodi:type="star"
             style="fill:url(#linearGradient4469);fill-opacity:1;stroke:none"
             id="path5774-3-7-5-2"
             sodipodi:sides="6"
             sodipodi:cx="1186.0317"
             sodipodi:cy="83.473305"
             sodipodi:r1="89.305145"
             sodipodi:r2="77.340523"
             sodipodi:arg1="1.0498865"
             sodipodi:arg2="1.5734853"
             inkscape:flatsided="true"
             inkscape:rounded="0"
             inkscape:randomized="0"
             d="m 1230.4762,160.93362 -89.3048,-0.24014 -44.4445,-77.460312 44.8604,-77.2201765 89.3048,0.2401367 44.4445,77.4603128 z"
             transform="matrix(2.0493517,0,0,2.0493517,-1099.3252,42.87006)" />
          <path
             sodipodi:type="star"
             style="fill:none;stroke:#000000;stroke-width:3;stroke-miterlimit:4;stroke-opacity:1;stroke-dasharray:none"
             id="path5774-3-7-5-1-9"
             sodipodi:sides="6"
             sodipodi:cx="1186.0317"
             sodipodi:cy="83.473305"
             sodipodi:r1="89.305145"
             sodipodi:r2="77.340523"
             sodipodi:arg1="1.0498865"
             sodipodi:arg2="1.5734853"
             inkscape:flatsided="true"
             inkscape:rounded="0"
             inkscape:randomized="0"
             d="m 1230.4762,160.93362 -89.3048,-0.24014 -44.4445,-77.460312 44.8604,-77.2201765 89.3048,0.2401367 44.4445,77.4603128 z"
             transform="matrix(2.0493517,0,0,2.0493517,-1097.7512,39.89603)" />
        </g>
        <g
           clip-path="url(#clipPath6750)"
           transform="matrix(0.8291362,0,0,0.8291362,916.77281,-29.374999)"
           id="g5808">
          <path
             style="fill:none;stroke:#000000;stroke-width:20;stroke-linecap:round;stroke-linejoin:round;stroke-miterlimit:4;stroke-opacity:1;stroke-dasharray:none"
             d="m 302.59681,422.027 c 5.68678,1.79583 11.12051,5.91932 17.06035,5.38748 6.40073,-0.57311 12.26753,-4.69817 17.06035,-8.97914 6.7486,-6.02789 10.50881,-14.74964 15.26453,-22.44783 6.12684,-9.91764 10.2943,-21.036 17.06036,-30.52906 6.52076,-9.1489 14.67059,-17.03372 22.44783,-25.14157 9.81698,-10.2343 19.43438,-20.79811 30.52905,-29.63114 14.22393,-11.32439 29.18239,-22.23992 45.79359,-29.63114 14.72606,-6.55242 30.75903,-10.13196 46.69149,-12.57079 14.50913,-2.22096 29.38734,-3.20412 43.99776,-1.79583 18.06558,1.74133 35.66379,7.12527 52.97689,12.57079 13.20176,4.15237 25.63318,10.45581 38.61027,15.26453 7.72186,2.86137 15.24495,9.56157 23.34575,8.08122 2.29956,-0.42023 3.59165,-2.99305 5.38748,-4.48957"
             id="path5717"
             inkscape:connector-curvature="0"
             sodipodi:nodetypes="caaaaaaaaaaaac" />
          <path
             style="fill:none;stroke:#000000;stroke-width:20;stroke-linecap:butt;stroke-linejoin:miter;stroke-miterlimit:4;stroke-opacity:1;stroke-dasharray:none"
             d="m 213.70338,366.35637 c 17.95827,-9.57774 35.11226,-20.84656 53.8748,-28.73323 10.99532,-4.62179 22.38457,-8.64866 34.12071,-10.77496 11.20687,-2.03041 22.75055,-2.45612 34.12071,-1.79583 14.24564,0.82727 28.54213,3.05626 42.20193,7.18331 22.57461,6.82049 43.40345,18.49964 64.64976,28.73323 15.19665,7.31969 28.88509,18.0375 44.89567,23.34574 10.64891,3.5306 22.00524,5.56297 33.2228,5.38748 10.97542,-0.1717 22.23569,-1.96133 32.32488,-6.28539 12.82405,-5.49617 23.34612,-15.37955 34.12071,-24.24366 12.42567,-10.22243 24.03447,-21.46508 35.01862,-33.2228 21.47823,-22.99086 60.16019,-72.73098 60.16019,-72.73098"
             id="path5719"
             inkscape:connector-curvature="0"
             sodipodi:nodetypes="caaaaaaaaaac" />
          <path
             style="fill:#ffff00;stroke:#000000;stroke-width:20;stroke-linecap:round;stroke-linejoin:miter;stroke-miterlimit:4;stroke-opacity:1;stroke-dasharray:none"
             d="m 626.74353,289.13582 -9.87704,35.01862"
             id="path5721"
             inkscape:connector-curvature="0" />
          <path
             style="fill:#00ffff;stroke:#000000;stroke-width:20;stroke-linecap:round;stroke-linejoin:miter;stroke-miterlimit:4;stroke-opacity:1;stroke-dasharray:none"
             d="m 580.94995,274.7692 -0.89791,85.30177"
             id="path5735"
             inkscape:connector-curvature="0" />
          <path
             style="fill:none;stroke:#000000;stroke-width:15;stroke-linecap:round;stroke-linejoin:miter;stroke-miterlimit:4;stroke-opacity:1;stroke-dasharray:none"
             d="m 527.07515,271.17755 19.75409,114.035"
             id="path5737"
             inkscape:connector-curvature="0" />
          <path
             style="fill:#800080;stroke:#000000;stroke-width:15;stroke-linecap:round;stroke-linejoin:miter;stroke-miterlimit:4;stroke-opacity:1;stroke-dasharray:none"
             d="m 475.89409,278.36086 35.01862,107.7496"
             id="path5739"
             inkscape:connector-curvature="0" />
          <path
             style="fill:#ff00ff;stroke:#000000;stroke-width:15;stroke-linecap:round;stroke-linejoin:miter;stroke-miterlimit:4;stroke-opacity:1;stroke-dasharray:none"
             d="m 430.10051,310.68574 51.18106,68.24141"
             id="path5741"
             inkscape:connector-curvature="0" />
          <path
             style="fill:#ffff00;stroke:#000000;stroke-width:15;stroke-linecap:round;stroke-linejoin:miter;stroke-miterlimit:4;stroke-opacity:1;stroke-dasharray:none"
             d="m 363.65492,328.644 -19.7541,73.6289"
             id="path5743"
             inkscape:connector-curvature="0" />
          <path
             style="fill:#ffff00;stroke:#000000;stroke-width:15;stroke-linecap:round;stroke-linejoin:miter;stroke-miterlimit:4;stroke-opacity:1;stroke-dasharray:none"
             d="m 316.06551,325.95026 8.97913,98.77048"
             id="path5745"
             inkscape:connector-curvature="0" />
        </g>
        <g
           id="text6191-7"
           style="font-size:70.31442261px;font-style:normal;font-variant:normal;font-weight:normal;font-stretch:normal;text-align:start;line-height:125%;letter-spacing:0px;word-spacing:0px;writing-mode:lr-tb;text-anchor:start;fill:#000000;fill-opacity:1;stroke:none;font-family:Sawasdee;-inkscape-font-specification:Sawasdee">
          <path
             id="path3022"
             style=""
             d="m 1251.6595,111.42015 3.09,0 0,51.25949 -3.09,0 0,-28.2219 -30.2476,0 0,28.2219 -3.09,0 0,-51.25949 3.09,0 0,19.9476 30.2476,0 0,-19.9476" />
          <path
             id="path3024"
             style=""
             d="m 1261.5818,127.86576 3.1586,0 11.9823,30.72823 11.7077,-30.72823 3.2959,0 -20.0162,52.70149 -3.296,0 6.7636,-17.81894 -13.5959,-34.88255" />
          <path
             id="path3026"
             style=""
             d="m 1301.0993,162.67964 -3.296,0 c 0.5722,-1.14444 0.8584,-2.67799 0.8584,-4.60065 l 0,-46.65884 3.0899,0 0,25.37225 c 0.8469,-2.49485 2.5407,-4.69218 5.0814,-6.59198 2.5635,-1.92262 5.1728,-2.88395 7.8279,-2.88399 2.9069,4e-5 5.5734,0.82403 7.9997,2.47199 2.4262,1.62514 4.3259,3.81102 5.6993,6.55765 1.3962,2.74668 2.0943,5.71078 2.0943,8.8923 0,3.20445 -0.6981,6.19143 -2.0943,8.96097 -1.3734,2.74666 -3.2731,4.93254 -5.6993,6.55764 -2.4263,1.62511 -5.0928,2.43766 -7.9997,2.43766 -2.6093,0 -5.1957,-0.97277 -7.7593,-2.91832 -2.5635,-1.96844 -4.2802,-4.14287 -5.15,-6.52331 l 0,4.32598 c 0,1.55644 -0.2174,3.08999 -0.6523,4.60065 m 4.4633,-27.94723 c -2.5406,2.88401 -3.811,6.38599 -3.811,10.50596 0,4.12 1.2704,7.63343 3.811,10.5403 2.5407,2.90688 5.5734,4.36032 9.0983,4.36031 3.4791,1e-5 6.5004,-1.45343 9.064,-4.36031 2.5635,-2.92976 3.8453,-6.44319 3.8453,-10.5403 0,-4.11997 -1.2818,-7.62195 -3.8453,-10.50596 -2.5636,-2.88396 -5.5849,-4.32596 -9.064,-4.32599 -3.5249,3e-5 -6.5576,1.44203 -9.0983,4.32599" />
          <path
             id="path3028"
             style=""
             d="m 1339.5525,127.86576 3.296,0 c 0.4349,1.5107 0.6523,3.04425 0.6523,4.60065 l 0,4.32599 c 0.5265,-1.76241 1.751,-3.59352 3.6737,-5.49332 1.9226,-1.89973 3.8567,-3.22728 5.8023,-3.98265 l 3.4333,2.43766 c -2.0142,3e-5 -4.0284,0.70958 -6.0426,2.12866 -1.9914,1.41913 -3.6394,3.30746 -4.944,5.66498 -1.2818,2.33468 -1.9227,4.74945 -1.9227,7.24431 l 0,17.8876 -3.09,0 0,-30.21323 c 0,-1.9684 -0.2861,-3.50195 -0.8583,-4.60065" />
          <path
             id="path3030"
             style=""
             d="m 1361.4228,119.62579 c 0,-0.75529 0.2632,-1.40762 0.7896,-1.95699 0.5494,-0.54929 1.2131,-0.82395 1.9914,-0.824 0.7553,5e-5 1.3962,0.27471 1.9226,0.824 0.5493,0.54937 0.824,1.2017 0.824,1.95699 0,0.77826 -0.2632,1.44204 -0.7896,1.99133 -0.5265,0.52648 -1.1788,0.7897 -1.957,0.78966 -0.7783,4e-5 -1.442,-0.26318 -1.9914,-0.78966 -0.5264,-0.54929 -0.7896,-1.21307 -0.7896,-1.99133 m 4.326,43.05385 -3.09,0 0,-34.81388 3.09,0 0,34.81388" />
          <path
             id="path3032"
             style=""
             d="m 1408.3219,162.67964 -3.2959,0 c -0.3892,-1.35044 -0.5837,-2.88399 -0.5837,-4.60065 l 0,-4.32598 c -0.8698,2.38044 -2.5979,4.55487 -5.1843,6.52331 -2.5636,1.94555 -5.1386,2.91832 -7.725,2.91832 -2.9069,0 -5.5849,-0.81255 -8.034,-2.43766 -2.4262,-1.6251 -4.3374,-3.81098 -5.7336,-6.55764 -1.3733,-2.76954 -2.06,-5.75652 -2.06,-8.96097 0,-3.20441 0.6867,-6.16851 2.06,-8.8923 1.3962,-2.74663 3.3074,-4.93251 5.7336,-6.55765 2.4491,-1.64796 5.1271,-2.47195 8.034,-2.47199 2.6322,4e-5 5.2301,0.96137 7.7936,2.88399 2.5636,1.8998 4.2688,4.09713 5.1157,6.59198 l 0,-25.37225 3.0556,0 0,46.65884 c 0,1.96844 0.2747,3.50199 0.824,4.60065 m -7.7249,-6.90097 c 2.5635,-2.90687 3.8453,-6.4203 3.8453,-10.5403 0,-4.11997 -1.2704,-7.62195 -3.811,-10.50596 -2.5407,-2.88396 -5.5734,-4.32596 -9.0983,-4.32599 -3.502,3e-5 -6.5348,1.44203 -9.0983,4.32599 -2.5636,2.88401 -3.8453,6.38599 -3.8453,10.50596 0,4.09711 1.2817,7.61054 3.8453,10.5403 2.5635,2.90688 5.5963,4.36032 9.0983,4.36031 3.502,1e-5 6.5233,-1.45343 9.064,-4.36031" />
        </g>
        <g
           id="text6195-9"
           style="font-size:67.28687286px;font-style:normal;font-variant:normal;font-weight:normal;font-stretch:normal;text-align:start;line-height:125%;letter-spacing:0px;word-spacing:0px;writing-mode:lr-tb;text-anchor:start;fill:#000000;fill-opacity:1;stroke:none;font-family:Sawasdee;-inkscape-font-specification:Sawasdee">
          <path
             id="path3035"
             style=""
             d="m 1261.7094,361.31186 2.3655,1.60989 c -2.278,3.13217 -5.1692,5.60724 -8.6737,7.42521 -3.5046,1.79607 -7.2829,2.6941 -11.3349,2.6941 -3.3732,0 -6.593,-0.6571 -9.6594,-1.97129 -3.0665,-1.3142 -5.7058,-3.08836 -7.918,-5.3225 -2.2123,-2.23413 -3.9755,-4.89537 -5.2897,-7.98375 -1.3142,-3.08834 -1.9713,-6.33002 -1.9713,-9.72505 0,-3.39498 0.6571,-6.63666 1.9713,-9.72506 1.3142,-3.08832 3.0774,-5.74957 5.2897,-7.98374 2.2122,-2.23409 4.8515,-4.00826 7.918,-5.3225 3.0664,-1.31415 6.2862,-1.97125 9.6594,-1.97129 4.0301,4e-5 7.7975,0.91998 11.3021,2.75981 3.5044,1.81802 6.4066,4.30404 8.7065,7.45806 l -2.3655,1.74132 c -2.0371,-2.73787 -4.5998,-4.89534 -7.6881,-6.47242 -3.0665,-1.5989 -6.3848,-2.39837 -9.955,-2.39841 -3.9865,4e-5 -7.6662,0.98569 -11.0393,2.95694 -3.3512,1.97134 -6.0015,4.65449 -7.9509,8.04946 -1.9494,3.37313 -2.9241,7.06383 -2.9241,11.0721 0,2.97887 0.5695,5.82629 1.7085,8.54228 1.1608,2.71602 2.716,5.05967 4.6654,7.03095 1.9494,1.97131 4.2821,3.54834 6.9981,4.73111 2.716,1.16088 5.5634,1.74132 8.5423,1.74131 3.5702,1e-5 6.8885,-0.79946 9.955,-2.39841 3.0883,-1.59893 5.651,-3.7783 7.6881,-6.53812" />
          <path
             id="path3037"
             style=""
             d="m 1273.5043,372.67966 0,-49.0524 2.9569,0 0,25.19973 c 1.139,-2.67218 2.7927,-5.00487 4.9611,-6.9981 2.1684,-1.99317 4.2602,-2.98977 6.2753,-2.9898 2.2341,3e-5 4.1178,0.62428 5.651,1.87273 1.5551,1.24852 2.6722,2.84746 3.3512,4.79682 0.7009,1.94942 1.0514,4.15069 1.0514,6.60384 l 0,20.56718 -2.8912,0 0,-20.56718 c -10e-5,-1.20466 -0.1205,-2.36553 -0.3614,-3.48262 -0.2191,-1.11705 -0.5805,-2.21221 -1.0843,-3.2855 -0.5038,-1.07323 -1.2594,-1.92745 -2.2669,-2.56268 -0.9857,-0.65707 -2.1575,-0.98562 -3.5155,-0.98565 -1.2923,3e-5 -2.6394,0.50381 -4.0412,1.51133 -1.3799,1.00758 -2.5846,2.24511 -3.614,3.71261 -1.0076,1.44564 -1.8509,2.98982 -2.5298,4.63254 -0.6572,1.64276 -0.9857,3.08838 -0.9857,4.33685 l 0,16.6903 -2.9569,0" />
          <path
             id="path3039"
             style=""
             d="m 1310.4989,353.19669 24.2141,0 c -0.6133,-3.30737 -2.059,-6.03433 -4.3369,-8.18087 -2.2779,-2.1465 -4.8844,-3.21976 -7.8194,-3.21979 -2.9132,3e-5 -5.5087,1.07329 -7.7867,3.21979 -2.256,2.14654 -3.6797,4.8735 -4.2711,8.18087 m 27.4339,2.79267 -27.8939,0 c 0,3.9207 1.2266,7.24999 3.6798,9.98789 2.4531,2.73792 5.3553,4.10687 8.7065,4.10687 2.2122,0 4.3807,-0.59139 6.5053,-1.77417 2.1246,-1.18277 3.7454,-2.77075 4.8625,-4.76396 l 2.5956,1.47847 c -1.3362,2.38746 -3.3074,4.34781 -5.9139,5.88103 -2.6065,1.51133 -5.2897,2.26699 -8.0495,2.26699 -2.7817,0 -5.3444,-0.77757 -7.688,-2.3327 -2.3218,-1.55513 -4.1507,-3.64689 -5.4868,-6.27529 -1.3142,-2.65028 -1.9713,-5.50866 -1.9713,-8.57513 0,-3.04454 0.6681,-5.88101 2.0042,-8.50943 1.358,-2.62836 3.2088,-4.72012 5.5524,-6.27528 2.3656,-1.57701 4.9392,-2.36553 7.721,-2.36556 2.6283,3e-5 5.0705,0.71189 7.3266,2.13557 2.2779,1.40184 4.1178,3.29647 5.5196,5.6839 1.4018,2.38748 2.2232,5.00492 2.4641,7.85233 l 0.066,1.47847" />
          <path
             id="path3041"
             style=""
             d="m 1371.4776,363.48028 2.497,1.47847 c -1.358,2.45317 -3.1869,4.41352 -5.4868,5.88103 -2.2779,1.46752 -4.753,2.20128 -7.4252,2.20128 -2.7817,0 -5.3444,-0.76661 -7.688,-2.29984 -2.3218,-1.55513 -4.1507,-3.64689 -5.4868,-6.27529 -1.3142,-2.62839 -1.9713,-5.47581 -1.9713,-8.54228 0,-3.08834 0.6571,-5.94672 1.9713,-8.57514 1.3361,-2.62836 3.165,-4.70917 5.4868,-6.24243 2.3436,-1.5551 4.9063,-2.33266 7.688,-2.3327 2.6722,4e-5 5.1473,0.73379 7.4252,2.20128 2.2999,1.46755 4.1288,3.42789 5.4868,5.88103 l -2.497,1.47847 c -1.1609,-2.01507 -2.6612,-3.60306 -4.5011,-4.76396 -1.818,-1.18275 -3.7893,-1.77414 -5.9139,-1.77417 -3.3512,3e-5 -6.2534,1.35804 -8.7065,4.07401 -2.4532,2.71603 -3.6798,6.03438 -3.6798,9.95504 0,3.94261 1.2266,7.29381 3.6798,10.05361 2.4531,2.75982 5.3553,4.13972 8.7065,4.13972 2.1246,0 4.1069,-0.58044 5.9468,-1.74131 1.8398,-1.16087 3.3292,-2.75981 4.4682,-4.79682" />
          <path
             id="path3043"
             style=""
             d="m 1386.4595,372.67966 -2.957,0 0,-49.0524 2.957,0 0,29.10946 14.7518,-13.37195 4.4355,0 -14.062,12.74771 17.6431,20.56718 -3.8111,0 -15.9675,-18.59589 -2.9898,2.66125 0,15.93464" />
        </g>
      </g>
    </g>
  </g>
</svg>
