<?xml version="1.0" encoding="UTF-8" standalone="no"?>
<!-- Created with Inkscape (http://www.inkscape.org/) -->

<svg
   xmlns:dc="http://purl.org/dc/elements/1.1/"
   xmlns:cc="http://creativecommons.org/ns#"
   xmlns:rdf="http://www.w3.org/1999/02/22-rdf-syntax-ns#"
   xmlns:svg="http://www.w3.org/2000/svg"
   xmlns="http://www.w3.org/2000/svg"
   xmlns:xlink="http://www.w3.org/1999/xlink"
   xmlns:sodipodi="http://sodipodi.sourceforge.net/DTD/sodipodi-0.dtd"
   xmlns:inkscape="http://www.inkscape.org/namespaces/inkscape"
   version="1.1"
   width="193.97801"
   height="212.79681"
   id="svg4034"
   inkscape:version="0.48.4 r9939"
   sodipodi:docname="HybridCheck_Text_Logo_4.svg">
  <sodipodi:namedview
     pagecolor="#ffffff"
     bordercolor="#666666"
     borderopacity="1"
     objecttolerance="10"
     gridtolerance="10"
     guidetolerance="10"
     inkscape:pageopacity="0"
     inkscape:pageshadow="2"
     inkscape:window-width="1209"
     inkscape:window-height="808"
     id="namedview55"
     showgrid="false"
     inkscape:zoom="2.2180783"
     inkscape:cx="105.32876"
     inkscape:cy="109.2225"
     inkscape:window-x="524"
     inkscape:window-y="24"
     inkscape:window-maximized="0"
     inkscape:current-layer="svg4034" />
  <defs
     id="defs4036">
    <linearGradient
       x1="1187.6556"
       y1="157.1241"
       x2="1186.9478"
       y2="72.044724"
       id="linearGradient3753-0"
       xlink:href="#linearGradient5838-1-4-6-4"
       gradientUnits="userSpaceOnUse" />
    <linearGradient
       id="linearGradient5838-1-4-6-4">
      <stop
         id="stop5840-1-7-9-7"
         style="stop-color:#ff0000;stop-opacity:1"
         offset="0" />
      <stop
         id="stop5842-0-5-5-9"
         style="stop-color:#ff0000;stop-opacity:0"
         offset="1" />
    </linearGradient>
    <linearGradient
       x1="1135.5919"
       y1="22.520924"
       x2="1195.8365"
       y2="91.092361"
       id="linearGradient3755-1"
       xlink:href="#linearGradient5846-8-1-9-4"
       gradientUnits="userSpaceOnUse" />
    <linearGradient
       id="linearGradient5846-8-1-9-4">
      <stop
         id="stop5848-5-7-1-9"
         style="stop-color:#00ff00;stop-opacity:1"
         offset="0" />
      <stop
         id="stop5850-9-4-8-9"
         style="stop-color:#00ff00;stop-opacity:0"
         offset="1" />
    </linearGradient>
    <linearGradient
       x1="1237.1793"
       y1="25.060608"
       x2="1181.8683"
       y2="78.393944"
       id="linearGradient3757-0"
       xlink:href="#linearGradient5854-0-1-1-8"
       gradientUnits="userSpaceOnUse" />
    <linearGradient
       id="linearGradient5854-0-1-1-8">
      <stop
         id="stop5856-79-7-5-6"
         style="stop-color:#0000ff;stop-opacity:1"
         offset="0" />
      <stop
         id="stop5858-9-48-7-7"
         style="stop-color:#0000ff;stop-opacity:0"
         offset="1" />
    </linearGradient>
    <clipPath
       id="clipPath6750-24-6-0">
      <g
         transform="matrix(2.4716708,0,0,2.4716708,-1668.3136,77.839419)"
         id="g6752-3-6-2">
        <path
           d="m 1230.4762,160.93362 -89.3048,-0.24014 -44.4445,-77.460312 44.8604,-77.2201765 89.3048,0.2401367 44.4445,77.4603128 z"
           transform="translate(-320.8539,16.50793)"
           id="path6754-8-5-3"
           style="fill:url(#linearGradient6762);fill-opacity:1;stroke:none" />
        <path
           d="m 1230.4762,160.93362 -89.3048,-0.24014 -44.4445,-77.460312 44.8604,-77.2201765 89.3048,0.2401367 44.4445,77.4603128 z"
           transform="translate(-320.8539,16.50793)"
           id="path6756-6-8-9"
           style="fill:url(#linearGradient6764);fill-opacity:1;stroke:none" />
        <path
           d="m 1230.4762,160.93362 -89.3048,-0.24014 -44.4445,-77.460312 44.8604,-77.2201765 89.3048,0.2401367 44.4445,77.4603128 z"
           transform="translate(-320.3539,16.00793)"
           id="path6758-7-6-8"
           style="fill:url(#linearGradient6766);fill-opacity:1;stroke:none" />
        <path
           d="m 1230.4762,160.93362 -89.3048,-0.24014 -44.4445,-77.460312 44.8604,-77.2201765 89.3048,0.2401367 44.4445,77.4603128 z"
           transform="translate(-319.45392,16.307565)"
           id="path6760-18-4-6"
           style="fill:none;stroke:#000000;stroke-width:3;stroke-miterlimit:4;stroke-opacity:1;stroke-dasharray:none" />
      </g>
    </clipPath>
    <linearGradient
       x1="1187.6556"
       y1="157.1241"
       x2="1186.9478"
       y2="72.044724"
       id="linearGradient4465-3"
       xlink:href="#linearGradient5838-1-5"
       gradientUnits="userSpaceOnUse" />
    <linearGradient
       id="linearGradient5838-1-5">
      <stop
         id="stop5840-1-8"
         style="stop-color:#ff0000;stop-opacity:1"
         offset="0" />
      <stop
         id="stop5842-0-8"
         style="stop-color:#ff0000;stop-opacity:0"
         offset="1" />
    </linearGradient>
    <linearGradient
       x1="1135.5919"
       y1="22.520924"
       x2="1195.8365"
       y2="91.092361"
       id="linearGradient4467-1"
       xlink:href="#linearGradient5846-8-3"
       gradientUnits="userSpaceOnUse" />
    <linearGradient
       id="linearGradient5846-8-3">
      <stop
         id="stop5848-5-8"
         style="stop-color:#00ff00;stop-opacity:1"
         offset="0" />
      <stop
         id="stop5850-9-2"
         style="stop-color:#00ff00;stop-opacity:0"
         offset="1" />
    </linearGradient>
    <linearGradient
       x1="1237.1793"
       y1="25.060608"
       x2="1181.8683"
       y2="78.393944"
       id="linearGradient4469-9"
       xlink:href="#linearGradient5854-0-7"
       gradientUnits="userSpaceOnUse" />
    <linearGradient
       id="linearGradient5854-0-7">
      <stop
         id="stop5856-79-0"
         style="stop-color:#0000ff;stop-opacity:1"
         offset="0" />
      <stop
         id="stop5858-9-4"
         style="stop-color:#0000ff;stop-opacity:0"
         offset="1" />
    </linearGradient>
    <clipPath
       id="clipPath3593">
      <path
         inkscape:connector-curvature="0"
         d="m 130,472.36218 -40,69.28203 -80,0 -40,-69.28203 40,-69.28203 80,0 z"
         transform="matrix(2.7327202,0,0,2.7320848,175.32631,-1165.5176)"
         id="path3595"
         style="fill:#ffffff;fill-opacity:1;stroke:#000000;stroke-width:3;stroke-linecap:butt;stroke-linejoin:round;stroke-miterlimit:4;stroke-opacity:1;stroke-dasharray:none" />
    </clipPath>
  </defs>
  <metadata
     id="metadata4039">
    <rdf:RDF>
      <cc:Work
         rdf:about="">
        <dc:format>image/svg+xml</dc:format>
        <dc:type
           rdf:resource="http://purl.org/dc/dcmitype/StillImage" />
        <dc:title />
      </cc:Work>
    </rdf:RDF>
  </metadata>
  <g
     id="text6195-9-7-3"
     style="font-size:67.28687286px;font-style:normal;font-variant:normal;font-weight:normal;font-stretch:normal;text-align:start;line-height:125%;letter-spacing:0px;word-spacing:0px;writing-mode:lr-tb;text-anchor:start;fill:#000000;fill-opacity:1;stroke:none;font-family:Sawasdee;-inkscape-font-specification:Sawasdee"
     transform="translate(-225.75473,-706.55765)">
    <path
       d="m 268.23614,907.49383 2.36556,1.60989 c -2.27799,3.13218 -5.16922,5.60725 -8.6737,7.42521 -3.50456,1.79607 -7.28287,2.69411 -11.33495,2.69411 -3.37313,0 -6.59291,-0.6571 -9.65934,-1.9713 -3.06648,-1.31419 -5.70582,-3.08836 -7.91804,-5.32249 -2.21224,-2.23413 -3.97545,-4.89538 -5.28964,-7.98375 -1.3142,-3.08834 -1.9713,-6.33003 -1.9713,-9.72506 0,-3.39498 0.6571,-6.63666 1.9713,-9.72505 1.31419,-3.08833 3.0774,-5.74957 5.28964,-7.98375 2.21222,-2.23409 4.85156,-4.00825 7.91804,-5.32249 3.06643,-1.31415 6.28621,-1.97125 9.65934,-1.9713 4.03017,5e-5 7.79753,0.91999 11.3021,2.75981 3.50448,1.81802 6.40666,4.30404 8.70655,7.45807 l -2.36556,1.74131 c -2.03705,-2.73787 -4.59973,-4.89534 -7.68805,-6.47242 -3.06649,-1.59889 -6.38483,-2.39836 -9.95504,-2.39841 -3.98642,5e-5 -7.66617,0.9857 -11.03925,2.95695 -3.35122,1.97133 -6.00151,4.65448 -7.95089,8.04945 -1.9494,3.37314 -2.92409,7.06384 -2.92409,11.07211 0,2.97887 0.56948,5.82629 1.70846,8.54228 1.16086,2.71602 2.71599,5.05967 4.6654,7.03095 1.94937,1.9713 4.28207,3.54834 6.99809,4.73111 2.71599,1.16088 5.56341,1.74131 8.54228,1.74131 3.57021,0 6.88855,-0.79947 9.95504,-2.39841 3.08832,-1.59893 5.651,-3.77831 7.68805,-6.53813"
       id="path3326"
       inkscape:connector-curvature="0" />
    <path
       d="m 280.03106,918.86163 0,-49.05239 2.95694,0 0,25.19972 c 1.13896,-2.67217 2.79266,-5.00487 4.96109,-6.9981 2.16841,-1.99316 4.26017,-2.98976 6.27529,-2.98979 2.23412,3e-5 4.1178,0.62427 5.65105,1.87273 1.55511,1.24852 2.67217,2.84745 3.3512,4.79682 0.70088,1.94941 1.05133,4.15069 1.05136,6.60383 l 0,20.56718 -2.89123,0 0,-20.56718 c -3e-5,-1.20465 -0.1205,-2.36553 -0.36141,-3.48262 -0.21906,-1.11704 -0.58046,-2.2122 -1.08421,-3.28549 -0.5038,-1.07323 -1.25946,-1.92746 -2.26699,-2.56268 -0.98567,-0.65707 -2.15749,-0.98562 -3.51548,-0.98565 -1.29231,3e-5 -2.63936,0.50381 -4.04115,1.51133 -1.37992,1.00758 -2.5846,2.24511 -3.61404,3.7126 -1.00756,1.44564 -1.85084,2.98982 -2.52983,4.63255 -0.65711,1.64276 -0.98566,3.08838 -0.98565,4.33684 l 0,16.6903 -2.95694,0"
       id="path3328"
       inkscape:connector-curvature="0" />
    <path
       d="m 317.02569,899.37867 24.21408,0 c -0.61332,-3.30738 -2.05894,-6.03433 -4.33685,-8.18088 -2.27797,-2.14649 -4.88445,-3.21975 -7.81947,-3.21978 -2.91315,3e-5 -5.50869,1.07329 -7.78662,3.21978 -2.25604,2.14655 -3.67975,4.8735 -4.27114,8.18088 m 27.43386,2.79266 -27.89382,0 c -10e-6,3.9207 1.22657,7.25 3.67975,9.9879 2.45315,2.73791 5.35533,4.10687 8.70655,4.10686 2.21221,1e-5 4.38063,-0.59138 6.50527,-1.77416 2.12459,-1.18277 3.74544,-2.77076 4.86253,-4.76396 l 2.59554,1.47847 c -1.33613,2.38746 -3.30742,4.3478 -5.91388,5.88103 -2.60652,1.51132 -5.28967,2.26699 -8.04946,2.26699 -2.78173,0 -5.34441,-0.77757 -7.68805,-2.3327 -2.32176,-1.55513 -4.15068,-3.64689 -5.48677,-6.27529 -1.3142,-2.65029 -1.9713,-5.50866 -1.9713,-8.57514 0,-3.04453 0.66805,-5.881 2.00415,-8.50942 1.358,-2.62836 3.20882,-4.72013 5.55248,-6.27529 2.36554,-1.577 4.93918,-2.36552 7.72091,-2.36555 2.62837,3e-5 5.07058,0.71189 7.32665,2.13557 2.27791,1.40184 4.11778,3.29647 5.51962,5.6839 1.40178,2.38748 2.22315,5.00492 2.46412,7.85232 l 0.0657,1.47847"
       id="path3330"
       inkscape:connector-curvature="0" />
    <path
       d="m 378.00443,909.66226 2.49697,1.47847 c -1.35803,2.45317 -3.18695,4.41351 -5.48677,5.88103 -2.27796,1.46752 -4.75303,2.20128 -7.42521,2.20128 -2.78173,0 -5.34441,-0.76662 -7.68805,-2.29985 -2.32176,-1.55513 -4.15068,-3.64689 -5.48677,-6.27529 -1.3142,-2.62838 -1.9713,-5.4758 -1.9713,-8.54228 0,-3.08834 0.6571,-5.94671 1.9713,-8.57513 1.33609,-2.62836 3.16501,-4.70917 5.48677,-6.24243 2.34364,-1.5551 4.90632,-2.33267 7.68805,-2.3327 2.67218,3e-5 5.14725,0.73379 7.42521,2.20128 2.29982,1.46755 4.12874,3.42789 5.48677,5.88103 l -2.49697,1.47847 c -1.1609,-2.01508 -2.66128,-3.60306 -4.50112,-4.76396 -1.818,-1.18275 -3.78929,-1.77414 -5.91389,-1.77417 -3.35122,3e-5 -6.2534,1.35803 -8.70655,4.07401 -2.45318,2.71603 -3.67976,6.03437 -3.67975,9.95504 -1e-5,3.9426 1.22657,7.2938 3.67975,10.05361 2.45315,2.75981 5.35533,4.13972 8.70655,4.13971 2.1246,10e-6 4.10684,-0.58043 5.94674,-1.74131 1.83985,-1.16086 3.32927,-2.7598 4.46827,-4.79681"
       id="path3332"
       inkscape:connector-curvature="0" />
    <path
       d="m 392.98627,918.86163 -2.95694,0 0,-49.05239 2.95694,0 0,29.10946 14.75186,-13.37195 4.43542,0 -14.06191,12.7477 17.64309,20.56718 -3.81117,0 -15.96749,-18.59588 -2.9898,2.66125 0,15.93463"
       id="path3334"
       inkscape:connector-curvature="0" />
  </g>
  <g
     id="text6191-7-9-4"
     style="font-size:70.31442261px;font-style:normal;font-variant:normal;font-weight:normal;font-stretch:normal;text-align:start;line-height:125%;letter-spacing:0px;word-spacing:0px;writing-mode:lr-tb;text-anchor:start;fill:#000000;fill-opacity:1;stroke:none;font-family:Sawasdee;-inkscape-font-specification:Sawasdee"
     transform="matrix(1.0213556,0,0,1,-234.71838,-706.55765)">
    <path
       d="m 263.07028,706.55765 3.08999,0 0,51.25949 -3.08999,0 0,-28.2219 -30.24756,0 0,28.2219 -3.08999,0 0,-51.25949 3.08999,0 0,19.9476 30.24756,0 0,-19.9476"
       id="path3313"
       inkscape:connector-curvature="0" />
    <path
       d="m 272.99258,723.00326 3.15866,0 11.98229,30.72823 11.70763,-30.72823 3.29599,0 -20.01627,52.70148 -3.29599,0 6.76365,-17.81893 -13.59596,-34.88255"
       id="path3315"
       inkscape:connector-curvature="0" />
    <path
       d="m 312.51011,757.81714 -3.29599,0 c 0.57222,-1.14444 0.85833,-2.67799 0.85833,-4.60065 l 0,-46.65884 3.08999,0 0,25.37225 c 0.84688,-2.49486 2.54065,-4.69218 5.08132,-6.59198 2.56353,-1.92263 5.17285,-2.88396 7.82797,-2.88399 2.90686,3e-5 5.5734,0.82403 7.99964,2.47199 2.42618,1.62514 4.32595,3.81102 5.69931,6.55764 1.39618,2.74668 2.09429,5.71078 2.09433,8.89231 -4e-5,3.20444 -0.69815,6.19143 -2.09433,8.96096 -1.37336,2.74667 -3.27313,4.93255 -5.69931,6.55765 -2.42624,1.6251 -5.09278,2.43766 -7.99964,2.43766 -2.60934,0 -5.19577,-0.97278 -7.7593,-2.91833 -2.56356,-1.96843 -4.28022,-4.14286 -5.14999,-6.52331 l 0,4.32599 c -1e-5,1.55644 -0.21745,3.08999 -0.65233,4.60065 m 4.46332,-27.94724 c -2.54067,2.88402 -3.811,6.386 -3.81099,10.50597 -1e-5,4.11999 1.27032,7.63342 3.81099,10.54029 2.54064,2.90689 5.57341,4.36032 9.0983,4.36032 3.47908,0 6.5004,-1.45343 9.06397,-4.36032 2.56351,-2.92976 3.84529,-6.44318 3.84532,-10.54029 -3e-5,-4.11997 -1.28181,-7.62195 -3.84532,-10.50597 -2.56357,-2.88396 -5.58489,-4.32595 -9.06397,-4.32598 -3.52489,3e-5 -6.55766,1.44202 -9.0983,4.32598"
       id="path3317"
       inkscape:connector-curvature="0" />
    <path
       d="m 350.96331,723.00326 3.29599,0 c 0.43488,1.51069 0.65233,3.04424 0.65233,4.60065 l 0,4.32599 c 0.52644,-1.76242 1.75099,-3.59352 3.67366,-5.49332 1.92264,-1.89974 3.85675,-3.22729 5.80231,-3.98265 l 3.43332,2.43766 c -2.01423,3e-5 -4.02845,0.70958 -6.04264,2.12866 -1.99134,1.41913 -3.63934,3.30746 -4.94399,5.66498 -1.28178,2.33468 -1.92266,4.74944 -1.92266,7.2443 l 0,17.88761 -3.08998,0 0,-30.21323 c -10e-6,-1.96841 -0.28612,-3.50195 -0.85834,-4.60065"
       id="path3319"
       inkscape:connector-curvature="0" />
    <path
       d="m 372.83357,714.76329 c 0,-0.75529 0.26322,-1.40762 0.78967,-1.957 0.54932,-0.54928 1.2131,-0.82395 1.99132,-0.82399 0.75533,4e-5 1.39621,0.27471 1.92266,0.82399 0.54933,0.54938 0.82399,1.20171 0.824,1.957 -10e-6,0.77826 -0.26323,1.44203 -0.78966,1.99132 -0.52645,0.52649 -1.17878,0.78971 -1.957,0.78967 -0.77822,4e-5 -1.442,-0.26318 -1.99132,-0.78967 -0.52645,-0.54929 -0.78967,-1.21306 -0.78967,-1.99132 m 4.32599,43.05385 -3.08999,0 0,-34.81388 3.08999,0 0,34.81388"
       id="path3321"
       inkscape:connector-curvature="0" />
    <path
       d="m 419.73274,757.81714 -3.29599,0 c -0.38914,-1.35044 -0.58369,-2.88399 -0.58366,-4.60065 l 0,-4.32599 c -0.86981,2.38045 -2.59791,4.55488 -5.18432,6.52331 -2.56357,1.94555 -5.13856,2.91833 -7.72497,2.91833 -2.90689,0 -5.58488,-0.81256 -8.03397,-2.43766 -2.42622,-1.6251 -4.33744,-3.81098 -5.73365,-6.55765 -1.37333,-2.76953 -2.05999,-5.75652 -2.05999,-8.96096 0,-3.20442 0.68666,-6.16851 2.05999,-8.89231 1.39621,-2.74662 3.30743,-4.9325 5.73365,-6.55764 2.44909,-1.64796 5.12708,-2.47196 8.03397,-2.47199 2.63219,3e-5 5.23007,0.96136 7.79364,2.88399 2.56352,1.8998 4.26873,4.09712 5.11565,6.59198 l 0,-25.37225 3.05566,0 0,46.65884 c -4e-5,1.96844 0.27463,3.50199 0.82399,4.60065 m -7.72497,-6.90098 c 2.56352,-2.90687 3.84529,-6.4203 3.84532,-10.54029 -3e-5,-4.11997 -1.27036,-7.62195 -3.81099,-10.50597 -2.54068,-2.88396 -5.57345,-4.32595 -9.0983,-4.32598 -3.502,3e-5 -6.53477,1.44202 -9.0983,4.32598 -2.56356,2.88402 -3.84533,6.386 -3.84532,10.50597 -10e-6,4.09711 1.28176,7.61053 3.84532,10.54029 2.56353,2.90689 5.5963,4.36032 9.0983,4.36032 3.50197,0 6.52329,-1.45343 9.06397,-4.36032"
       id="path3323"
       inkscape:connector-curvature="0" />
  </g>
  <g
     transform="matrix(0.30239044,0,0,0.30239044,43.639552,63.811924)"
     id="g3054">
    <g
       style="display:inline"
       id="layer2"
       transform="translate(-181.60379,-275.59725)">
      <g
         style="display:inline"
         id="layer1-5"
         transform="translate(101.98123,219.10281)">
        <g
           id="g4458"
           transform="matrix(0.99999667,-0.0025789,0.0025789,0.99999667,-1067.6703,10.55226)">
          <path
             inkscape:connector-curvature="0"
             style="fill:#ffffff;fill-opacity:1;stroke:none"
             id="path5774-3-7-5-2-5"
             transform="matrix(2.0493517,0,0,2.0493517,-1099.3252,42.87006)"
             d="m 1230.4762,160.93362 -89.3048,-0.24014 -44.4445,-77.460312 44.8604,-77.2201765 89.3048,0.2401367 44.4445,77.4603128 z" />
          <path
             inkscape:connector-curvature="0"
             style="fill:url(#linearGradient4465-3);fill-opacity:1;stroke:none"
             id="path5774-3-1"
             transform="matrix(2.0493517,0,0,2.0493517,-1099.3252,42.87006)"
             d="m 1230.4762,160.93362 -89.3048,-0.24014 -44.4445,-77.460312 44.8604,-77.2201765 89.3048,0.2401367 44.4445,77.4603128 z" />
          <path
             inkscape:connector-curvature="0"
             style="fill:url(#linearGradient4467-1);fill-opacity:1;stroke:none"
             id="path5774-3-7-4"
             transform="matrix(2.0493517,0,0,2.0493517,-1099.3252,42.87006)"
             d="m 1230.4762,160.93362 -89.3048,-0.24014 -44.4445,-77.460312 44.8604,-77.2201765 89.3048,0.2401367 44.4445,77.4603128 z" />
          <path
             inkscape:connector-curvature="0"
             style="fill:url(#linearGradient4469-9);fill-opacity:1;stroke:none"
             id="path5774-3-7-5-2"
             transform="matrix(2.0493517,0,0,2.0493517,-1099.3252,42.87006)"
             d="m 1230.4762,160.93362 -89.3048,-0.24014 -44.4445,-77.460312 44.8604,-77.2201765 89.3048,0.2401367 44.4445,77.4603128 z" />
          <path
             inkscape:connector-curvature="0"
             style="fill:none;stroke:#000000;stroke-width:3;stroke-miterlimit:4;stroke-opacity:1;stroke-dasharray:none"
             id="path5774-3-7-5-1-9"
             transform="matrix(2.0493517,0,0,2.0493517,-1097.7512,39.89603)"
             d="m 1230.4762,160.93362 -89.3048,-0.24014 -44.4445,-77.460312 44.8604,-77.2201765 89.3048,0.2401367 44.4445,77.4603128 z" />
        </g>
      </g>
    </g>
    <g
       style="display:inline"
       id="layer3"
       transform="translate(-181.60379,-275.59725)">
      <g
         style="display:inline"
         id="DNA_Helix"
         clip-path="url(#clipPath3593)"
         transform="matrix(0.83555434,0,0,0.83555434,107.03403,332.72157)">
        <path
           inkscape:connector-curvature="0"
           style="font-size:medium;font-style:normal;font-variant:normal;font-weight:normal;font-stretch:normal;text-indent:0;text-align:start;text-decoration:none;line-height:normal;letter-spacing:normal;word-spacing:normal;text-transform:none;direction:ltr;block-progression:tb;writing-mode:lr-tb;text-anchor:start;baseline-shift:baseline;color:#000000;fill:#000000;fill-opacity:1;stroke:none;stroke-width:20;marker:none;visibility:visible;display:inline;overflow:visible;enable-background:accumulate;font-family:Sans;-inkscape-font-specification:Sans"
           id="path5767-5"
           d="m 382.21875,56.9375 c -11.74214,-0.229446 -23.4061,0.799586 -34.71875,2.53125 -16.38725,2.508447 -33.29675,6.214038 -49.25,13.3125 -17.915,7.97135 -33.52182,19.435568 -47.96875,30.9375 -11.93105,9.49892 -21.80412,20.4232 -31.5,30.53125 -7.60337,7.9266 -16.14467,16.10554 -23.375,26.25 -7.78155,10.91783 -12.00135,22.29415 -17.4375,31.09375 -5.29197,8.56623 -8.85548,16.18522 -13.40625,20.25 -4.14932,3.70619 -8.5852,6.22735 -11.28125,6.46875 -0.82733,0.0741 -5.02212,-2.40007 -13.15625,-4.96875 a 10.011834,10.011834 0 1 0 -6.03125,19.09375 c 3.23943,1.02298 9.9164,6.8021 20.96875,5.8125 10.10541,-0.90482 17.37618,-6.64425 22.8125,-11.5 8.94643,-7.991 12.90553,-17.8261 17.125,-24.65625 6.81753,-11.03568 10.93693,-21.90046 16.6875,-29.96875 5.81119,-8.15334 13.58014,-15.74213 21.53125,-24.03125 9.93808,-10.36055 19.27296,-20.55161 29.53125,-28.71875 14.00093,-11.14685 28.3176,-21.50141 43.625,-28.3125 13.49887,-6.006378 28.67858,-9.474537 44.15625,-11.84375 13.93473,-2.133035 28.00862,-3.022189 41.53125,-1.71875 16.72349,1.611966 33.67496,6.726632 50.9375,12.15625 12.15263,3.822384 24.42917,10.018696 38.125,15.09375 2.46844,0.91469 6.11218,3.12163 10.6875,5.3125 4.57532,2.19087 10.72414,4.56818 17.9375,3.25 4.37409,-0.79934 6.98782,-3.37886 8.34375,-4.8125 1.35593,-1.43364 1.9861,-2.14466 1.625,-1.84375 a 10.001,10.001 0 1 0 -12.78125,-15.375 c -1.39856,1.165465 -1.66373,1.622285 -2.1875,2.25 -0.98829,-0.147036 -2.25734,-0.515893 -4.3125,-1.5 C 497.29561,90.52677 493.31592,87.946677 488.0625,86 475.80415,81.457614 463.25089,75.076106 449,70.59375 c -17.36366,-5.461422 -35.62358,-11.129306 -55.03125,-13 -3.92455,-0.378285 -7.83595,-0.579768 -11.75,-0.65625 z" />
        <path
           inkscape:connector-curvature="0"
           style="font-size:medium;font-style:normal;font-variant:normal;font-weight:normal;font-stretch:normal;text-indent:0;text-align:start;text-decoration:none;line-height:normal;letter-spacing:normal;word-spacing:normal;text-transform:none;direction:ltr;block-progression:tb;writing-mode:lr-tb;text-anchor:start;baseline-shift:baseline;color:#000000;fill:#000000;fill-opacity:1;stroke:none;stroke-width:20;marker:none;visibility:visible;display:inline;overflow:visible;enable-background:accumulate;font-family:Sans;-inkscape-font-specification:Sans"
           id="path5769-4"
           d="m 509.03125,47.9375 c 0,0 -38.93847,49.921295 -59.59375,72.03125 -10.75559,11.51307 -22.05498,22.46532 -34.0625,32.34375 -11.12424,9.15176 -21.03271,18.21479 -31.6875,22.78125 -8.53126,3.65636 -18.56677,5.31238 -28.5625,5.46875 -9.90461,0.15495 -20.18504,-1.65197 -29.90625,-4.875 -13.81012,-4.57869 -27.16766,-14.91797 -43.6875,-22.875 -20.86847,-10.0516 -42.15512,-22.03921 -66.125,-29.28125 -14.55474,-4.39744 -29.60306,-6.72866 -44.5,-7.59375 -12.00959,-0.69742 -24.31785,-0.26395 -36.46875,1.9375 -12.79871,2.31881 -24.86218,6.60136 -36.21875,11.375 C 78.326503,137.61154 60.917624,149.11685 43.5,158.40625 l 9.40625,17.625 c 18.498916,-9.86608 35.429675,-20.93193 53.0625,-28.34375 10.63407,-4.46994 21.35768,-8.19121 32.03125,-10.125 10.26284,-1.85937 21.01927,-2.27941 31.75,-1.65625 13.59434,0.78945 27.11014,2.89334 39.875,6.75 21.17934,6.39894 41.5946,17.77192 63.21875,28.1875 13.87346,6.68235 27.88271,17.77471 46.09375,23.8125 11.57661,3.83817 23.96949,6.10228 36.5,5.90625 11.95511,-0.18703 24.47788,-2.10199 36.125,-7.09375 14.99331,-6.42588 26.10631,-17.14229 36.53125,-25.71875 12.84382,-10.56643 24.75604,-22.12263 35.96875,-34.125 22.30118,-23.87176 60.75,-73.40625 60.75,-73.40625 L 509.03125,47.9375 z" />
        <path
           inkscape:connector-curvature="0"
           style="font-size:medium;font-style:normal;font-variant:normal;font-weight:normal;font-stretch:normal;text-indent:0;text-align:start;text-decoration:none;line-height:normal;letter-spacing:normal;word-spacing:normal;text-transform:none;direction:ltr;block-progression:tb;writing-mode:lr-tb;text-anchor:start;baseline-shift:baseline;color:#000000;fill:#000000;fill-opacity:1;fill-rule:nonzero;stroke:none;stroke-width:20;marker:none;visibility:visible;display:inline;overflow:visible;enable-background:accumulate;font-family:Sans;-inkscape-font-specification:Sans"
           id="path5771-5"
           d="m 460.875,79.875 a 10.001,10.001 0 0 0 -9.25,7.40625 l -9.875,35.03125 a 10.001,10.001 0 1 0 19.25,5.40625 l 9.875,-35 a 10.001,10.001 0 0 0 -10,-12.84375 z" />
        <path
           inkscape:connector-curvature="0"
           style="font-size:medium;font-style:normal;font-variant:normal;font-weight:normal;font-stretch:normal;text-indent:0;text-align:start;text-decoration:none;line-height:normal;letter-spacing:normal;word-spacing:normal;text-transform:none;direction:ltr;block-progression:tb;writing-mode:lr-tb;text-anchor:start;baseline-shift:baseline;color:#000000;fill:#000000;fill-opacity:1;fill-rule:nonzero;stroke:none;stroke-width:20;marker:none;visibility:visible;display:inline;overflow:visible;enable-background:accumulate;font-family:Sans;-inkscape-font-specification:Sans"
           id="path5773-8"
           d="m 415.40625,65.5 a 10.001,10.001 0 0 0 -9.9375,10.03125 l -0.90625,85.28125 a 10.001,10.001 0 1 0 20,0.21875 L 425.46875,75.75 A 10.001,10.001 0 0 0 415.40625,65.5 z" />
        <path
           inkscape:connector-curvature="0"
           style="font-size:medium;font-style:normal;font-variant:normal;font-weight:normal;font-stretch:normal;text-indent:0;text-align:start;text-decoration:none;line-height:normal;letter-spacing:normal;word-spacing:normal;text-transform:none;direction:ltr;block-progression:tb;writing-mode:lr-tb;text-anchor:start;baseline-shift:baseline;color:#000000;fill:#000000;fill-opacity:1;fill-rule:nonzero;stroke:none;stroke-width:15;marker:none;visibility:visible;display:inline;overflow:visible;enable-background:accumulate;font-family:Sans;-inkscape-font-specification:Sans"
           id="path5775-1"
           d="m 361.65625,64.4375 a 7.50075,7.50075 0 0 0 -7.46875,8.875 l 19.75,114.03125 a 7.5008626,7.5008626 0 1 0 14.78125,-2.5625 L 368.96875,70.75 a 7.50075,7.50075 0 0 0 -7.3125,-6.3125 z" />
        <path
           inkscape:connector-curvature="0"
           style="font-size:medium;font-style:normal;font-variant:normal;font-weight:normal;font-stretch:normal;text-indent:0;text-align:start;text-decoration:none;line-height:normal;letter-spacing:normal;word-spacing:normal;text-transform:none;direction:ltr;block-progression:tb;writing-mode:lr-tb;text-anchor:start;baseline-shift:baseline;color:#000000;fill:#000000;fill-opacity:1;fill-rule:nonzero;stroke:none;stroke-width:15;marker:none;visibility:visible;display:inline;overflow:visible;enable-background:accumulate;font-family:Sans;-inkscape-font-specification:Sans"
           id="path5777-4"
           d="m 310.15625,71.625 a 7.50075,7.50075 0 0 0 -6.875,9.90625 l 35,107.75 a 7.5057432,7.5057432 0 1 0 14.28125,-4.625 l -35.03125,-107.75 a 7.50075,7.50075 0 0 0 -7.375,-5.28125 z" />
        <path
           inkscape:connector-curvature="0"
           style="font-size:medium;font-style:normal;font-variant:normal;font-weight:normal;font-stretch:normal;text-indent:0;text-align:start;text-decoration:none;line-height:normal;letter-spacing:normal;word-spacing:normal;text-transform:none;direction:ltr;block-progression:tb;writing-mode:lr-tb;text-anchor:start;baseline-shift:baseline;color:#000000;fill:#000000;fill-opacity:1;fill-rule:nonzero;stroke:none;stroke-width:15;marker:none;visibility:visible;display:inline;overflow:visible;enable-background:accumulate;font-family:Sans;-inkscape-font-specification:Sans"
           id="path5779-8"
           d="m 264.09375,103.96875 a 7.50075,7.50075 0 0 0 -5.5,12.0625 l 51.1875,68.25 a 7.50075,7.50075 0 1 0 12,-9 l -51.1875,-68.25 a 7.50075,7.50075 0 0 0 -6.5,-3.0625 z" />
        <path
           inkscape:connector-curvature="0"
           style="font-size:medium;font-style:normal;font-variant:normal;font-weight:normal;font-stretch:normal;text-indent:0;text-align:start;text-decoration:none;line-height:normal;letter-spacing:normal;word-spacing:normal;text-transform:none;direction:ltr;block-progression:tb;writing-mode:lr-tb;text-anchor:start;baseline-shift:baseline;color:#000000;fill:#000000;fill-opacity:1;fill-rule:nonzero;stroke:none;stroke-width:15;marker:none;visibility:visible;display:inline;overflow:visible;enable-background:accumulate;font-family:Sans;-inkscape-font-specification:Sans"
           id="path5781-5"
           d="m 197.78125,121.90625 a 7.50075,7.50075 0 0 0 -6.875,5.65625 l -19.75,73.625 a 7.5044258,7.5044258 0 1 0 14.5,3.875 l 19.75,-73.625 a 7.50075,7.50075 0 0 0 -7.625,-9.53125 z" />
        <path
           inkscape:connector-curvature="0"
           style="font-size:medium;font-style:normal;font-variant:normal;font-weight:normal;font-stretch:normal;text-indent:0;text-align:start;text-decoration:none;line-height:normal;letter-spacing:normal;word-spacing:normal;text-transform:none;direction:ltr;block-progression:tb;writing-mode:lr-tb;text-anchor:start;baseline-shift:baseline;color:#000000;fill:#000000;fill-opacity:1;fill-rule:nonzero;stroke:none;stroke-width:15;marker:none;visibility:visible;display:inline;overflow:visible;enable-background:accumulate;font-family:Sans;-inkscape-font-specification:Sans"
           id="path5783-4"
           d="m 150.53125,119.21875 a 7.50075,7.50075 0 0 0 -7.4375,8.28125 l 9,98.75 a 7.50075,7.50075 0 1 0 14.9375,-1.34375 l -9,-98.78125 a 7.50075,7.50075 0 0 0 -7.5,-6.90625 z" />
      </g>
    </g>
  </g>
</svg>
