<?xml version="1.0" encoding="UTF-8" standalone="no"?>
<!-- Created with Inkscape (http://www.inkscape.org/) -->

<svg
   xmlns:dc="http://purl.org/dc/elements/1.1/"
   xmlns:cc="http://creativecommons.org/ns#"
   xmlns:rdf="http://www.w3.org/1999/02/22-rdf-syntax-ns#"
   xmlns:svg="http://www.w3.org/2000/svg"
   xmlns="http://www.w3.org/2000/svg"
   xmlns:xlink="http://www.w3.org/1999/xlink"
   xmlns:sodipodi="http://sodipodi.sourceforge.net/DTD/sodipodi-0.dtd"
   xmlns:inkscape="http://www.inkscape.org/namespaces/inkscape"
   version="1.1"
   width="603.13"
   height="103.00813"
   id="svg3283"
   inkscape:version="0.48.4 r9939"
   sodipodi:docname="HybridCheck_Text_Logo_1.svg">
  <sodipodi:namedview
     pagecolor="#ffffff"
     bordercolor="#666666"
     borderopacity="1"
     objecttolerance="10"
     gridtolerance="10"
     guidetolerance="10"
     inkscape:pageopacity="0"
     inkscape:pageshadow="2"
     inkscape:window-width="1855"
     inkscape:window-height="1056"
     id="namedview54"
     showgrid="false"
     fit-margin-top="0"
     fit-margin-left="0"
     fit-margin-right="0"
     fit-margin-bottom="0"
     inkscape:zoom="1.9337588"
     inkscape:cx="228.33114"
     inkscape:cy="-28.526968"
     inkscape:window-x="65"
     inkscape:window-y="24"
     inkscape:window-maximized="1"
     inkscape:current-layer="layer1" />
  <defs
     id="defs3285">
    <linearGradient
       x1="1187.6556"
       y1="157.1241"
       x2="1186.9478"
       y2="72.044724"
       id="linearGradient4978"
       xlink:href="#linearGradient5838-1"
       gradientUnits="userSpaceOnUse" />
    <linearGradient
       id="linearGradient5838-1">
      <stop
         id="stop5840-1"
         style="stop-color:#ff0000;stop-opacity:1"
         offset="0" />
      <stop
         id="stop5842-0"
         style="stop-color:#ff0000;stop-opacity:0"
         offset="1" />
    </linearGradient>
    <linearGradient
       x1="1135.5919"
       y1="22.520924"
       x2="1195.8365"
       y2="91.092361"
       id="linearGradient4980"
       xlink:href="#linearGradient5846-8"
       gradientUnits="userSpaceOnUse" />
    <linearGradient
       id="linearGradient5846-8">
      <stop
         id="stop5848-5"
         style="stop-color:#00ff00;stop-opacity:1"
         offset="0" />
      <stop
         id="stop5850-9"
         style="stop-color:#00ff00;stop-opacity:0"
         offset="1" />
    </linearGradient>
    <linearGradient
       x1="1237.1793"
       y1="25.060608"
       x2="1181.8683"
       y2="78.393944"
       id="linearGradient4982"
       xlink:href="#linearGradient5854-0"
       gradientUnits="userSpaceOnUse" />
    <linearGradient
       id="linearGradient5854-0">
      <stop
         id="stop5856-79"
         style="stop-color:#0000ff;stop-opacity:1"
         offset="0" />
      <stop
         id="stop5858-9"
         style="stop-color:#0000ff;stop-opacity:0"
         offset="1" />
    </linearGradient>
    <clipPath
       id="clipPath6750">
      <g
         transform="matrix(2.4716708,0,0,2.4716708,-1668.3136,77.839419)"
         id="g6752">
        <path
           d="m 1230.4762,160.93362 -89.3048,-0.24014 -44.4445,-77.460312 44.8604,-77.2201765 89.3048,0.2401367 44.4445,77.4603128 z"
           transform="translate(-320.8539,16.50793)"
           id="path6754"
           style="fill:url(#linearGradient6762);fill-opacity:1;stroke:none"
           inkscape:connector-curvature="0" />
        <path
           d="m 1230.4762,160.93362 -89.3048,-0.24014 -44.4445,-77.460312 44.8604,-77.2201765 89.3048,0.2401367 44.4445,77.4603128 z"
           transform="translate(-320.8539,16.50793)"
           id="path6756"
           style="fill:url(#linearGradient6764);fill-opacity:1;stroke:none"
           inkscape:connector-curvature="0" />
        <path
           d="m 1230.4762,160.93362 -89.3048,-0.24014 -44.4445,-77.460312 44.8604,-77.2201765 89.3048,0.2401367 44.4445,77.4603128 z"
           transform="translate(-320.3539,16.00793)"
           id="path6758"
           style="fill:url(#linearGradient6766);fill-opacity:1;stroke:none"
           inkscape:connector-curvature="0" />
        <path
           d="m 1230.4762,160.93362 -89.3048,-0.24014 -44.4445,-77.460312 44.8604,-77.2201765 89.3048,0.2401367 44.4445,77.4603128 z"
           transform="translate(-319.45392,16.307565)"
           id="path6760"
           style="fill:none;stroke:#000000;stroke-width:3;stroke-miterlimit:4;stroke-opacity:1;stroke-dasharray:none"
           inkscape:connector-curvature="0" />
      </g>
    </clipPath>
    <linearGradient
       x1="1187.6556"
       y1="157.1241"
       x2="1186.9478"
       y2="72.044724"
       id="linearGradient4465-3"
       xlink:href="#linearGradient5838-1-5"
       gradientUnits="userSpaceOnUse" />
    <linearGradient
       id="linearGradient5838-1-5">
      <stop
         id="stop5840-1-8"
         style="stop-color:#ff0000;stop-opacity:1"
         offset="0" />
      <stop
         id="stop5842-0-8"
         style="stop-color:#ff0000;stop-opacity:0"
         offset="1" />
    </linearGradient>
    <linearGradient
       x1="1135.5919"
       y1="22.520924"
       x2="1195.8365"
       y2="91.092361"
       id="linearGradient4467-1"
       xlink:href="#linearGradient5846-8-3"
       gradientUnits="userSpaceOnUse" />
    <linearGradient
       id="linearGradient5846-8-3">
      <stop
         id="stop5848-5-8"
         style="stop-color:#00ff00;stop-opacity:1"
         offset="0" />
      <stop
         id="stop5850-9-2"
         style="stop-color:#00ff00;stop-opacity:0"
         offset="1" />
    </linearGradient>
    <linearGradient
       x1="1237.1793"
       y1="25.060608"
       x2="1181.8683"
       y2="78.393944"
       id="linearGradient4469-9"
       xlink:href="#linearGradient5854-0-7"
       gradientUnits="userSpaceOnUse" />
    <linearGradient
       id="linearGradient5854-0-7">
      <stop
         id="stop5856-79-0"
         style="stop-color:#0000ff;stop-opacity:1"
         offset="0" />
      <stop
         id="stop5858-9-4"
         style="stop-color:#0000ff;stop-opacity:0"
         offset="1" />
    </linearGradient>
    <clipPath
       id="clipPath3593">
      <path
         inkscape:connector-curvature="0"
         d="m 130,472.36218 -40,69.28203 -80,0 -40,-69.28203 40,-69.28203 80,0 z"
         transform="matrix(2.7327202,0,0,2.7320848,175.32631,-1165.5176)"
         id="path3595"
         style="fill:#ffffff;fill-opacity:1;stroke:#000000;stroke-width:3;stroke-linecap:butt;stroke-linejoin:round;stroke-miterlimit:4;stroke-opacity:1;stroke-dasharray:none" />
    </clipPath>
  </defs>
  <metadata
     id="metadata3288">
    <rdf:RDF>
      <cc:Work
         rdf:about="">
        <dc:format>image/svg+xml</dc:format>
        <dc:type
           rdf:resource="http://purl.org/dc/dcmitype/StillImage" />
        <dc:title />
      </cc:Work>
    </rdf:RDF>
  </metadata>
  <g
     transform="translate(-84.58679,-277.58073)"
     id="layer1">
    <g
       style="font-size:83.22263336px;font-style:normal;font-variant:normal;font-weight:normal;font-stretch:normal;text-align:start;line-height:125%;letter-spacing:0px;word-spacing:0px;writing-mode:lr-tb;text-anchor:start;fill:#000000;fill-opacity:1;stroke:none;font-family:Sawasdee;-inkscape-font-specification:Sawasdee"
       id="text5989"
       transform="translate(5.8856729,193.42736)">
      <path
         inkscape:connector-curvature="0"
         id="path3179"
         d="m 250.60133,101.88924 3.65724,0 0,60.66963 -3.65724,0 0,-33.40284 -35.80036,0 0,33.40284 -3.65725,0 0,-60.66963 3.65725,0 0,23.60955 35.80036,0 0,-23.60955" />
      <path
         inkscape:connector-curvature="0"
         id="path3181"
         d="m 262.34515,121.35391 3.73851,0 14.18198,36.36927 13.8569,-36.36927 3.90106,0 -23.69082,62.37634 -3.90106,0 8.0053,-21.09011 -16.09187,-41.28623" />
      <path
         inkscape:connector-curvature="0"
         id="path3183"
         d="m 309.11724,162.55887 -3.90106,0 c 0.67726,-1.35454 1.0159,-3.16961 1.0159,-5.44523 l 0,-55.2244 3.65725,0 0,30.03005 c 1.00234,-2.95286 3.00705,-5.55356 6.01413,-7.80213 3.03414,-2.27557 6.12248,-3.41338 9.26502,-3.41342 3.44049,4e-5 6.59656,0.9753 9.4682,2.92579 2.87158,1.92348 5.12011,4.51064 6.74559,7.76149 1.65249,3.25091 2.47875,6.75915 2.4788,10.52473 -5e-5,3.79272 -0.82631,7.32805 -2.4788,10.60601 -1.62548,3.25089 -3.87401,5.83805 -6.74559,7.76149 -2.87164,1.92344 -6.02771,2.88516 -9.4682,2.88516 -3.08836,0 -6.1496,-1.15136 -9.18374,-3.45407 -3.03418,-2.32979 -5.06598,-4.9034 -6.09541,-7.72084 l 0,5.12014 c -10e-6,1.84217 -0.25737,3.65724 -0.77209,5.44523 m 5.28269,-33.07775 c -3.00708,3.41346 -4.51061,7.55833 -4.5106,12.43463 -10e-6,4.87635 1.50352,9.03476 4.5106,12.47527 3.00705,3.44053 6.59656,5.16078 10.76855,5.16078 4.11776,0 7.69373,-1.72025 10.72792,-5.16078 3.03412,-3.4676 4.5512,-7.62601 4.55124,-12.47527 -4e-5,-4.8763 -1.51712,-9.02117 -4.55124,-12.43463 -3.03419,-3.41339 -6.61016,-5.1201 -10.72792,-5.12014 -4.17199,4e-5 -7.7615,1.70675 -10.76855,5.12014" />
      <path
         inkscape:connector-curvature="0"
         id="path3185"
         d="m 354.62962,121.35391 3.90106,0 c 0.51471,1.78803 0.77208,3.6031 0.77209,5.44523 l 0,5.12015 c 0.62307,-2.08596 2.07242,-4.25321 4.34805,-6.50177 2.27561,-2.24849 4.56477,-3.81975 6.8675,-4.71378 l 4.0636,2.88516 c -2.384,3e-5 -4.76798,0.83984 -7.15194,2.51943 -2.35691,1.67966 -4.30744,3.91464 -5.8516,6.70495 -1.51709,2.76328 -2.27562,5.62134 -2.27561,8.57421 l 0,21.17138 -3.65725,0 0,-35.75973 c -10e-6,-2.32976 -0.33864,-4.14483 -1.0159,-5.44523" />
      <path
         inkscape:connector-curvature="0"
         id="path3187"
         d="m 380.51478,111.60126 c -10e-6,-0.89394 0.31153,-1.66603 0.93463,-2.31626 0.65017,-0.65012 1.4358,-0.97521 2.35689,-0.97526 0.89398,5e-5 1.65252,0.32514 2.27562,0.97526 0.65016,0.65023 0.97525,1.42232 0.97526,2.31626 -1e-5,0.92113 -0.31155,1.70676 -0.93463,2.35689 -0.62309,0.62313 -1.39518,0.93468 -2.31625,0.93463 -0.92109,5e-5 -1.70672,-0.3115 -2.35689,-0.93463 -0.6231,-0.65013 -0.93464,-1.43576 -0.93463,-2.35689 m 5.12014,50.95761 -3.65725,0 0,-41.20496 3.65725,0 0,41.20496" />
      <path
         inkscape:connector-curvature="0"
         id="path3189"
         d="m 436.02363,162.55887 -3.90106,0 c -0.46058,-1.59835 -0.69086,-3.41343 -0.69082,-5.44523 l 0,-5.12014 c -1.02948,2.81744 -3.07483,5.39105 -6.13604,7.72084 -3.03419,2.30271 -6.08189,3.45407 -9.14311,3.45407 -3.44054,0 -6.61015,-0.96172 -9.50884,-2.88516 -2.87162,-1.92344 -5.13369,-4.5106 -6.78622,-7.76149 -1.62545,-3.27796 -2.43817,-6.81329 -2.43816,-10.60601 -10e-6,-3.79267 0.81271,-7.30091 2.43816,-10.52473 1.65253,-3.25085 3.9146,-5.83801 6.78622,-7.76149 2.89869,-1.95049 6.0683,-2.92575 9.50884,-2.92579 3.1154,4e-5 6.19019,1.13785 9.22438,3.41342 3.03412,2.24857 5.05238,4.84927 6.05477,7.80213 l 0,-30.03005 3.61661,0 0,55.2244 c -4e-5,2.3298 0.32505,4.14488 0.97527,5.44523 m -9.14311,-8.16785 c 3.03412,-3.44051 4.55119,-7.59892 4.55123,-12.47527 -4e-5,-4.8763 -1.50357,-9.02117 -4.5106,-12.43463 -3.0071,-3.41339 -6.59661,-5.1201 -10.76855,-5.12014 -4.1449,4e-5 -7.73441,1.70675 -10.76856,5.12014 -3.03416,3.41346 -4.55124,7.55833 -4.55123,12.43463 -10e-6,4.84926 1.51707,9.00767 4.55123,12.47527 3.03415,3.44053 6.62366,5.16078 10.76856,5.16078 4.14485,0 7.72082,-1.72025 10.72792,-5.16078" />
      <path
         inkscape:connector-curvature="0"
         id="path3191"
         d="m 499.37523,148.49879 2.9258,1.99117 c -2.81749,3.87398 -6.39346,6.93523 -10.72792,9.18375 -4.33456,2.22144 -9.0077,3.33215 -14.01944,3.33215 -4.172,0 -8.15433,-0.81272 -11.947,-2.43816 -3.79272,-1.62544 -7.05714,-3.81978 -9.79329,-6.58304 -2.73617,-2.76324 -4.91697,-6.05476 -6.5424,-9.87456 -1.62545,-3.81977 -2.43817,-7.82919 -2.43816,-12.02827 -1e-5,-4.19902 0.81271,-8.20844 2.43816,-12.02827 1.62543,-3.81974 3.80623,-7.11126 6.5424,-9.87456 2.73615,-2.7632 6.00057,-4.95754 9.79329,-6.58304 3.79267,-1.62538 7.775,-2.4381 11.947,-2.43817 4.98465,7e-5 9.64424,1.13787 13.9788,3.41343 4.33446,2.24859 7.92397,5.32338 10.76856,9.22439 l -2.9258,2.15371 c -2.51949,-3.38629 -5.6891,-6.05472 -9.50884,-8.0053 -3.79274,-1.97757 -7.89698,-2.96638 -12.31272,-2.96644 -4.93054,6e-5 -9.48177,1.21914 -13.65371,3.65725 -4.1449,2.43821 -7.42287,5.75682 -9.83393,9.95583 -2.41108,4.17201 -3.61661,8.73679 -3.61661,13.69435 0,3.68436 0.70435,7.20615 2.11308,10.56537 1.43579,3.35927 3.35923,6.25797 5.77032,8.69612 2.41105,2.43817 5.29621,4.3887 8.65548,5.85159 3.35922,1.43581 6.881,2.15371 10.56537,2.15371 4.41574,0 8.51998,-0.98881 12.31272,-2.96643 3.81974,-1.97761 6.98935,-4.67314 9.50884,-8.08658" />
      <path
         inkscape:connector-curvature="0"
         id="path3193"
         d="m 513.96358,162.55887 0,-60.66963 3.65724,0 0,31.16786 c 1.4087,-3.30504 3.45405,-6.19019 6.13604,-8.65548 2.68196,-2.46522 5.26912,-3.69784 7.76149,-3.69788 2.76322,4e-5 5.09302,0.77212 6.9894,2.31625 1.92341,1.54421 3.30503,3.52183 4.14488,5.93286 0.86686,2.41111 1.30031,5.13372 1.30035,8.16785 l 0,25.43817 -3.57597,0 0,-25.43817 c -3e-5,-1.48996 -0.14903,-2.92577 -0.447,-4.30742 -0.27094,-1.3816 -0.71793,-2.73613 -1.34099,-4.06361 -0.62311,-1.32741 -1.55774,-2.38394 -2.80388,-3.16961 -1.21911,-0.81268 -2.66847,-1.21904 -4.34806,-1.21908 -1.59838,4e-5 -3.26445,0.62312 -4.99824,1.86926 -1.70673,1.24621 -3.19672,2.77683 -4.46996,4.59187 -1.24619,1.78802 -2.28918,3.69791 -3.12898,5.72969 -0.81273,2.03182 -1.21909,3.81981 -1.21908,5.36395 l 0,20.64312 -3.65724,0" />
      <path
         inkscape:connector-curvature="0"
         id="path3195"
         d="m 559.71978,138.46169 29.94877,0 c -0.75858,-4.09067 -2.54656,-7.46346 -5.36396,-10.11838 -2.81746,-2.65485 -6.04125,-3.98229 -9.67138,-3.98233 -3.60308,4e-5 -6.81333,1.32748 -9.63074,3.98233 -2.79036,2.65492 -4.55125,6.02771 -5.28269,10.11838 m 33.9311,3.45406 -34.5,0 c -10e-6,4.84926 1.51707,8.96704 4.55123,12.35336 3.03415,3.38635 6.62366,5.07951 10.76856,5.07951 2.73613,0 5.41811,-0.73144 8.04594,-2.19435 2.62776,-1.46289 4.63247,-3.42696 6.01413,-5.89222 l 3.21025,1.82862 c -1.65257,2.95289 -4.09073,5.37751 -7.31449,7.27385 -3.22382,1.86926 -6.54243,2.80389 -9.95583,2.80389 -3.44054,0 -6.61015,-0.96172 -9.50884,-2.88516 -2.87162,-1.92344 -5.1337,-4.5106 -6.78622,-7.76149 -1.62545,-3.27796 -2.43817,-6.81329 -2.43816,-10.60601 -10e-6,-3.76558 0.82626,-7.27382 2.4788,-10.52473 1.67961,-3.25085 3.96877,-5.83801 6.86749,-7.76149 2.92578,-1.95049 6.10893,-2.92575 9.54947,-2.92579 3.25086,4e-5 6.27147,0.88048 9.06184,2.64134 2.8174,1.73384 5.09302,4.07718 6.82686,7.03004 1.73376,2.95291 2.74966,6.19025 3.0477,9.71201 l 0.0813,1.82862" />
      <path
         inkscape:connector-curvature="0"
         id="path3197"
         d="m 635.14029,151.18077 3.08834,1.82863 c -1.67966,3.03416 -3.94173,5.45878 -6.78622,7.27385 -2.81746,1.81508 -5.87871,2.72261 -9.18375,2.72261 -3.44054,0 -6.61015,-0.94817 -9.50883,-2.84452 -2.87163,-1.92343 -5.1337,-4.51059 -6.78622,-7.76148 -1.62545,-3.25088 -2.43817,-6.77266 -2.43817,-10.56538 0,-3.81976 0.81272,-7.3551 2.43817,-10.60601 1.65252,-3.25085 3.91459,-5.82446 6.78622,-7.72085 2.89868,-1.9234 6.06829,-2.88511 9.50883,-2.88516 3.30504,5e-5 6.36629,0.90758 9.18375,2.72262 2.84449,1.81511 5.10656,4.23973 6.78622,7.27385 l -3.08834,1.82862 c -1.43584,-2.49231 -3.29155,-4.45638 -5.56714,-5.89222 -2.24856,-1.46286 -4.68672,-2.19431 -7.31449,-2.19435 -4.14489,4e-5 -7.73441,1.67966 -10.76855,5.03887 -3.03417,3.35928 -4.55125,7.46351 -4.55124,12.31272 -10e-6,4.87635 1.51707,9.02122 4.55124,12.43464 3.03414,3.41343 6.62366,5.12014 10.76855,5.12014 2.62777,0 5.07948,-0.7179 7.35513,-2.15371 2.27558,-1.4358 4.11775,-3.41342 5.5265,-5.93287" />
      <path
         inkscape:connector-curvature="0"
         id="path3199"
         d="m 653.67032,162.55887 -3.65725,0 0,-60.66963 3.65725,0 0,36.00355 18.24559,-16.53888 5.48586,0 -17.39223,15.76679 21.82156,25.43817 -4.71378,0 -19.74912,-23.00001 -3.69788,3.29152 0,19.70849" />
    </g>
    <g
       transform="matrix(0.31874871,0,0,0.31874871,84.586789,277.58073)"
       id="g3054">
      <g
         style="display:inline"
         id="layer2"
         transform="translate(-181.60379,-275.59725)">
        <g
           style="display:inline"
           id="layer1-5"
           transform="translate(101.98123,219.10281)">
          <g
             id="g4458"
             transform="matrix(0.99999667,-0.0025789,0.0025789,0.99999667,-1067.6703,10.55226)">
            <path
               inkscape:connector-curvature="0"
               style="fill:#ffffff;fill-opacity:1;stroke:none"
               id="path5774-3-7-5-2-5"
               transform="matrix(2.0493517,0,0,2.0493517,-1099.3252,42.87006)"
               d="m 1230.4762,160.93362 -89.3048,-0.24014 -44.4445,-77.460312 44.8604,-77.2201765 89.3048,0.2401367 44.4445,77.4603128 z" />
            <path
               inkscape:connector-curvature="0"
               style="fill:url(#linearGradient4465-3);fill-opacity:1;stroke:none"
               id="path5774-3-1"
               transform="matrix(2.0493517,0,0,2.0493517,-1099.3252,42.87006)"
               d="m 1230.4762,160.93362 -89.3048,-0.24014 -44.4445,-77.460312 44.8604,-77.2201765 89.3048,0.2401367 44.4445,77.4603128 z" />
            <path
               inkscape:connector-curvature="0"
               style="fill:url(#linearGradient4467-1);fill-opacity:1;stroke:none"
               id="path5774-3-7-4"
               transform="matrix(2.0493517,0,0,2.0493517,-1099.3252,42.87006)"
               d="m 1230.4762,160.93362 -89.3048,-0.24014 -44.4445,-77.460312 44.8604,-77.2201765 89.3048,0.2401367 44.4445,77.4603128 z" />
            <path
               inkscape:connector-curvature="0"
               style="fill:url(#linearGradient4469-9);fill-opacity:1;stroke:none"
               id="path5774-3-7-5-2"
               transform="matrix(2.0493517,0,0,2.0493517,-1099.3252,42.87006)"
               d="m 1230.4762,160.93362 -89.3048,-0.24014 -44.4445,-77.460312 44.8604,-77.2201765 89.3048,0.2401367 44.4445,77.4603128 z" />
            <path
               inkscape:connector-curvature="0"
               style="fill:none;stroke:#000000;stroke-width:3;stroke-miterlimit:4;stroke-opacity:1;stroke-dasharray:none"
               id="path5774-3-7-5-1-9"
               transform="matrix(2.0493517,0,0,2.0493517,-1097.7512,39.89603)"
               d="m 1230.4762,160.93362 -89.3048,-0.24014 -44.4445,-77.460312 44.8604,-77.2201765 89.3048,0.2401367 44.4445,77.4603128 z" />
          </g>
        </g>
      </g>
      <g
         style="display:inline"
         id="layer3"
         transform="translate(-181.60379,-275.59725)">
        <g
           style="display:inline"
           id="DNA_Helix"
           clip-path="url(#clipPath3593)"
           transform="matrix(0.83555434,0,0,0.83555434,107.03403,332.72157)">
          <path
             inkscape:connector-curvature="0"
             style="font-size:medium;font-style:normal;font-variant:normal;font-weight:normal;font-stretch:normal;text-indent:0;text-align:start;text-decoration:none;line-height:normal;letter-spacing:normal;word-spacing:normal;text-transform:none;direction:ltr;block-progression:tb;writing-mode:lr-tb;text-anchor:start;baseline-shift:baseline;color:#000000;fill:#000000;fill-opacity:1;stroke:none;stroke-width:20;marker:none;visibility:visible;display:inline;overflow:visible;enable-background:accumulate;font-family:Sans;-inkscape-font-specification:Sans"
             id="path5767-5"
             d="m 382.21875,56.9375 c -11.74214,-0.229446 -23.4061,0.799586 -34.71875,2.53125 -16.38725,2.508447 -33.29675,6.214038 -49.25,13.3125 -17.915,7.97135 -33.52182,19.435568 -47.96875,30.9375 -11.93105,9.49892 -21.80412,20.4232 -31.5,30.53125 -7.60337,7.9266 -16.14467,16.10554 -23.375,26.25 -7.78155,10.91783 -12.00135,22.29415 -17.4375,31.09375 -5.29197,8.56623 -8.85548,16.18522 -13.40625,20.25 -4.14932,3.70619 -8.5852,6.22735 -11.28125,6.46875 -0.82733,0.0741 -5.02212,-2.40007 -13.15625,-4.96875 a 10.011834,10.011834 0 1 0 -6.03125,19.09375 c 3.23943,1.02298 9.9164,6.8021 20.96875,5.8125 10.10541,-0.90482 17.37618,-6.64425 22.8125,-11.5 8.94643,-7.991 12.90553,-17.8261 17.125,-24.65625 6.81753,-11.03568 10.93693,-21.90046 16.6875,-29.96875 5.81119,-8.15334 13.58014,-15.74213 21.53125,-24.03125 9.93808,-10.36055 19.27296,-20.55161 29.53125,-28.71875 14.00093,-11.14685 28.3176,-21.50141 43.625,-28.3125 13.49887,-6.006378 28.67858,-9.474537 44.15625,-11.84375 13.93473,-2.133035 28.00862,-3.022189 41.53125,-1.71875 16.72349,1.611966 33.67496,6.726632 50.9375,12.15625 12.15263,3.822384 24.42917,10.018696 38.125,15.09375 2.46844,0.91469 6.11218,3.12163 10.6875,5.3125 4.57532,2.19087 10.72414,4.56818 17.9375,3.25 4.37409,-0.79934 6.98782,-3.37886 8.34375,-4.8125 1.35593,-1.43364 1.9861,-2.14466 1.625,-1.84375 a 10.001,10.001 0 1 0 -12.78125,-15.375 c -1.39856,1.165465 -1.66373,1.622285 -2.1875,2.25 -0.98829,-0.147036 -2.25734,-0.515893 -4.3125,-1.5 C 497.29561,90.52677 493.31592,87.946677 488.0625,86 475.80415,81.457614 463.25089,75.076106 449,70.59375 c -17.36366,-5.461422 -35.62358,-11.129306 -55.03125,-13 -3.92455,-0.378285 -7.83595,-0.579768 -11.75,-0.65625 z" />
          <path
             inkscape:connector-curvature="0"
             style="font-size:medium;font-style:normal;font-variant:normal;font-weight:normal;font-stretch:normal;text-indent:0;text-align:start;text-decoration:none;line-height:normal;letter-spacing:normal;word-spacing:normal;text-transform:none;direction:ltr;block-progression:tb;writing-mode:lr-tb;text-anchor:start;baseline-shift:baseline;color:#000000;fill:#000000;fill-opacity:1;stroke:none;stroke-width:20;marker:none;visibility:visible;display:inline;overflow:visible;enable-background:accumulate;font-family:Sans;-inkscape-font-specification:Sans"
             id="path5769-4"
             d="m 509.03125,47.9375 c 0,0 -38.93847,49.921295 -59.59375,72.03125 -10.75559,11.51307 -22.05498,22.46532 -34.0625,32.34375 -11.12424,9.15176 -21.03271,18.21479 -31.6875,22.78125 -8.53126,3.65636 -18.56677,5.31238 -28.5625,5.46875 -9.90461,0.15495 -20.18504,-1.65197 -29.90625,-4.875 -13.81012,-4.57869 -27.16766,-14.91797 -43.6875,-22.875 -20.86847,-10.0516 -42.15512,-22.03921 -66.125,-29.28125 -14.55474,-4.39744 -29.60306,-6.72866 -44.5,-7.59375 -12.00959,-0.69742 -24.31785,-0.26395 -36.46875,1.9375 -12.79871,2.31881 -24.86218,6.60136 -36.21875,11.375 C 78.326503,137.61154 60.917624,149.11685 43.5,158.40625 l 9.40625,17.625 c 18.498916,-9.86608 35.429675,-20.93193 53.0625,-28.34375 10.63407,-4.46994 21.35768,-8.19121 32.03125,-10.125 10.26284,-1.85937 21.01927,-2.27941 31.75,-1.65625 13.59434,0.78945 27.11014,2.89334 39.875,6.75 21.17934,6.39894 41.5946,17.77192 63.21875,28.1875 13.87346,6.68235 27.88271,17.77471 46.09375,23.8125 11.57661,3.83817 23.96949,6.10228 36.5,5.90625 11.95511,-0.18703 24.47788,-2.10199 36.125,-7.09375 14.99331,-6.42588 26.10631,-17.14229 36.53125,-25.71875 12.84382,-10.56643 24.75604,-22.12263 35.96875,-34.125 22.30118,-23.87176 60.75,-73.40625 60.75,-73.40625 L 509.03125,47.9375 z" />
          <path
             inkscape:connector-curvature="0"
             style="font-size:medium;font-style:normal;font-variant:normal;font-weight:normal;font-stretch:normal;text-indent:0;text-align:start;text-decoration:none;line-height:normal;letter-spacing:normal;word-spacing:normal;text-transform:none;direction:ltr;block-progression:tb;writing-mode:lr-tb;text-anchor:start;baseline-shift:baseline;color:#000000;fill:#000000;fill-opacity:1;fill-rule:nonzero;stroke:none;stroke-width:20;marker:none;visibility:visible;display:inline;overflow:visible;enable-background:accumulate;font-family:Sans;-inkscape-font-specification:Sans"
             id="path5771-5"
             d="m 460.875,79.875 a 10.001,10.001 0 0 0 -9.25,7.40625 l -9.875,35.03125 a 10.001,10.001 0 1 0 19.25,5.40625 l 9.875,-35 a 10.001,10.001 0 0 0 -10,-12.84375 z" />
          <path
             inkscape:connector-curvature="0"
             style="font-size:medium;font-style:normal;font-variant:normal;font-weight:normal;font-stretch:normal;text-indent:0;text-align:start;text-decoration:none;line-height:normal;letter-spacing:normal;word-spacing:normal;text-transform:none;direction:ltr;block-progression:tb;writing-mode:lr-tb;text-anchor:start;baseline-shift:baseline;color:#000000;fill:#000000;fill-opacity:1;fill-rule:nonzero;stroke:none;stroke-width:20;marker:none;visibility:visible;display:inline;overflow:visible;enable-background:accumulate;font-family:Sans;-inkscape-font-specification:Sans"
             id="path5773-8"
             d="m 415.40625,65.5 a 10.001,10.001 0 0 0 -9.9375,10.03125 l -0.90625,85.28125 a 10.001,10.001 0 1 0 20,0.21875 L 425.46875,75.75 A 10.001,10.001 0 0 0 415.40625,65.5 z" />
          <path
             inkscape:connector-curvature="0"
             style="font-size:medium;font-style:normal;font-variant:normal;font-weight:normal;font-stretch:normal;text-indent:0;text-align:start;text-decoration:none;line-height:normal;letter-spacing:normal;word-spacing:normal;text-transform:none;direction:ltr;block-progression:tb;writing-mode:lr-tb;text-anchor:start;baseline-shift:baseline;color:#000000;fill:#000000;fill-opacity:1;fill-rule:nonzero;stroke:none;stroke-width:15;marker:none;visibility:visible;display:inline;overflow:visible;enable-background:accumulate;font-family:Sans;-inkscape-font-specification:Sans"
             id="path5775-1"
             d="m 361.65625,64.4375 a 7.50075,7.50075 0 0 0 -7.46875,8.875 l 19.75,114.03125 a 7.5008626,7.5008626 0 1 0 14.78125,-2.5625 L 368.96875,70.75 a 7.50075,7.50075 0 0 0 -7.3125,-6.3125 z" />
          <path
             inkscape:connector-curvature="0"
             style="font-size:medium;font-style:normal;font-variant:normal;font-weight:normal;font-stretch:normal;text-indent:0;text-align:start;text-decoration:none;line-height:normal;letter-spacing:normal;word-spacing:normal;text-transform:none;direction:ltr;block-progression:tb;writing-mode:lr-tb;text-anchor:start;baseline-shift:baseline;color:#000000;fill:#000000;fill-opacity:1;fill-rule:nonzero;stroke:none;stroke-width:15;marker:none;visibility:visible;display:inline;overflow:visible;enable-background:accumulate;font-family:Sans;-inkscape-font-specification:Sans"
             id="path5777-4"
             d="m 310.15625,71.625 a 7.50075,7.50075 0 0 0 -6.875,9.90625 l 35,107.75 a 7.5057432,7.5057432 0 1 0 14.28125,-4.625 l -35.03125,-107.75 a 7.50075,7.50075 0 0 0 -7.375,-5.28125 z" />
          <path
             inkscape:connector-curvature="0"
             style="font-size:medium;font-style:normal;font-variant:normal;font-weight:normal;font-stretch:normal;text-indent:0;text-align:start;text-decoration:none;line-height:normal;letter-spacing:normal;word-spacing:normal;text-transform:none;direction:ltr;block-progression:tb;writing-mode:lr-tb;text-anchor:start;baseline-shift:baseline;color:#000000;fill:#000000;fill-opacity:1;fill-rule:nonzero;stroke:none;stroke-width:15;marker:none;visibility:visible;display:inline;overflow:visible;enable-background:accumulate;font-family:Sans;-inkscape-font-specification:Sans"
             id="path5779-8"
             d="m 264.09375,103.96875 a 7.50075,7.50075 0 0 0 -5.5,12.0625 l 51.1875,68.25 a 7.50075,7.50075 0 1 0 12,-9 l -51.1875,-68.25 a 7.50075,7.50075 0 0 0 -6.5,-3.0625 z" />
          <path
             inkscape:connector-curvature="0"
             style="font-size:medium;font-style:normal;font-variant:normal;font-weight:normal;font-stretch:normal;text-indent:0;text-align:start;text-decoration:none;line-height:normal;letter-spacing:normal;word-spacing:normal;text-transform:none;direction:ltr;block-progression:tb;writing-mode:lr-tb;text-anchor:start;baseline-shift:baseline;color:#000000;fill:#000000;fill-opacity:1;fill-rule:nonzero;stroke:none;stroke-width:15;marker:none;visibility:visible;display:inline;overflow:visible;enable-background:accumulate;font-family:Sans;-inkscape-font-specification:Sans"
             id="path5781-5"
             d="m 197.78125,121.90625 a 7.50075,7.50075 0 0 0 -6.875,5.65625 l -19.75,73.625 a 7.5044258,7.5044258 0 1 0 14.5,3.875 l 19.75,-73.625 a 7.50075,7.50075 0 0 0 -7.625,-9.53125 z" />
          <path
             inkscape:connector-curvature="0"
             style="font-size:medium;font-style:normal;font-variant:normal;font-weight:normal;font-stretch:normal;text-indent:0;text-align:start;text-decoration:none;line-height:normal;letter-spacing:normal;word-spacing:normal;text-transform:none;direction:ltr;block-progression:tb;writing-mode:lr-tb;text-anchor:start;baseline-shift:baseline;color:#000000;fill:#000000;fill-opacity:1;fill-rule:nonzero;stroke:none;stroke-width:15;marker:none;visibility:visible;display:inline;overflow:visible;enable-background:accumulate;font-family:Sans;-inkscape-font-specification:Sans"
             id="path5783-4"
             d="m 150.53125,119.21875 a 7.50075,7.50075 0 0 0 -7.4375,8.28125 l 9,98.75 a 7.50075,7.50075 0 1 0 14.9375,-1.34375 l -9,-98.78125 a 7.50075,7.50075 0 0 0 -7.5,-6.90625 z" />
        </g>
      </g>
    </g>
  </g>
</svg>
