<?xml version="1.0" encoding="UTF-8" standalone="no"?>
<!-- Created with Inkscape (http://www.inkscape.org/) -->

<svg
   xmlns:dc="http://purl.org/dc/elements/1.1/"
   xmlns:cc="http://creativecommons.org/ns#"
   xmlns:rdf="http://www.w3.org/1999/02/22-rdf-syntax-ns#"
   xmlns:svg="http://www.w3.org/2000/svg"
   xmlns="http://www.w3.org/2000/svg"
   xmlns:xlink="http://www.w3.org/1999/xlink"
   version="1.1"
   width="372.18347"
   height="323.16406"
   id="svg3580">
  <defs
     id="defs3582">
    <linearGradient
       x1="1187.6556"
       y1="157.1241"
       x2="1186.9478"
       y2="72.044724"
       id="linearGradient4465"
       xlink:href="#linearGradient5838-1"
       gradientUnits="userSpaceOnUse" />
    <linearGradient
       id="linearGradient5838-1">
      <stop
         id="stop5840-1"
         style="stop-color:#ff0000;stop-opacity:1"
         offset="0" />
      <stop
         id="stop5842-0"
         style="stop-color:#ff0000;stop-opacity:0"
         offset="1" />
    </linearGradient>
    <linearGradient
       x1="1135.5919"
       y1="22.520924"
       x2="1195.8365"
       y2="91.092361"
       id="linearGradient4467"
       xlink:href="#linearGradient5846-8"
       gradientUnits="userSpaceOnUse" />
    <linearGradient
       id="linearGradient5846-8">
      <stop
         id="stop5848-5"
         style="stop-color:#00ff00;stop-opacity:1"
         offset="0" />
      <stop
         id="stop5850-9"
         style="stop-color:#00ff00;stop-opacity:0"
         offset="1" />
    </linearGradient>
    <linearGradient
       x1="1237.1793"
       y1="25.060608"
       x2="1181.8683"
       y2="78.393944"
       id="linearGradient4469"
       xlink:href="#linearGradient5854-0"
       gradientUnits="userSpaceOnUse" />
    <linearGradient
       id="linearGradient5854-0">
      <stop
         id="stop5856-79"
         style="stop-color:#0000ff;stop-opacity:1"
         offset="0" />
      <stop
         id="stop5858-9"
         style="stop-color:#0000ff;stop-opacity:0"
         offset="1" />
    </linearGradient>
    <linearGradient
       x1="1187.6556"
       y1="157.1241"
       x2="1186.9478"
       y2="72.044724"
       id="linearGradient4465-1"
       xlink:href="#linearGradient5838-1-1"
       gradientUnits="userSpaceOnUse" />
    <linearGradient
       id="linearGradient5838-1-1">
      <stop
         id="stop5840-1-7"
         style="stop-color:#ff0000;stop-opacity:1"
         offset="0" />
      <stop
         id="stop5842-0-6"
         style="stop-color:#ff0000;stop-opacity:0"
         offset="1" />
    </linearGradient>
    <linearGradient
       x1="1135.5919"
       y1="22.520924"
       x2="1195.8365"
       y2="91.092361"
       id="linearGradient4467-8"
       xlink:href="#linearGradient5846-8-9"
       gradientUnits="userSpaceOnUse" />
    <linearGradient
       id="linearGradient5846-8-9">
      <stop
         id="stop5848-5-1"
         style="stop-color:#00ff00;stop-opacity:1"
         offset="0" />
      <stop
         id="stop5850-9-4"
         style="stop-color:#00ff00;stop-opacity:0"
         offset="1" />
    </linearGradient>
    <linearGradient
       x1="1237.1793"
       y1="25.060608"
       x2="1181.8683"
       y2="78.393944"
       id="linearGradient4469-5"
       xlink:href="#linearGradient5854-0-9"
       gradientUnits="userSpaceOnUse" />
    <linearGradient
       id="linearGradient5854-0-9">
      <stop
         id="stop5856-79-2"
         style="stop-color:#0000ff;stop-opacity:1"
         offset="0" />
      <stop
         id="stop5858-9-7"
         style="stop-color:#0000ff;stop-opacity:0"
         offset="1" />
    </linearGradient>
    <linearGradient
       x1="1187.6556"
       y1="157.1241"
       x2="1186.9478"
       y2="72.044724"
       id="linearGradient4465-3"
       xlink:href="#linearGradient5838-1-5"
       gradientUnits="userSpaceOnUse" />
    <linearGradient
       id="linearGradient5838-1-5">
      <stop
         id="stop5840-1-8"
         style="stop-color:#ff0000;stop-opacity:1"
         offset="0" />
      <stop
         id="stop5842-0-8"
         style="stop-color:#ff0000;stop-opacity:0"
         offset="1" />
    </linearGradient>
    <linearGradient
       x1="1135.5919"
       y1="22.520924"
       x2="1195.8365"
       y2="91.092361"
       id="linearGradient4467-1"
       xlink:href="#linearGradient5846-8-3"
       gradientUnits="userSpaceOnUse" />
    <linearGradient
       id="linearGradient5846-8-3">
      <stop
         id="stop5848-5-8"
         style="stop-color:#00ff00;stop-opacity:1"
         offset="0" />
      <stop
         id="stop5850-9-2"
         style="stop-color:#00ff00;stop-opacity:0"
         offset="1" />
    </linearGradient>
    <linearGradient
       x1="1237.1793"
       y1="25.060608"
       x2="1181.8683"
       y2="78.393944"
       id="linearGradient4469-9"
       xlink:href="#linearGradient5854-0-7"
       gradientUnits="userSpaceOnUse" />
    <linearGradient
       id="linearGradient5854-0-7">
      <stop
         id="stop5856-79-0"
         style="stop-color:#0000ff;stop-opacity:1"
         offset="0" />
      <stop
         id="stop5858-9-4"
         style="stop-color:#0000ff;stop-opacity:0"
         offset="1" />
    </linearGradient>
    <linearGradient
       x1="1187.6556"
       y1="157.1241"
       x2="1186.9478"
       y2="72.044724"
       id="linearGradient4465-3-8"
       xlink:href="#linearGradient5838-1-5-1"
       gradientUnits="userSpaceOnUse" />
    <linearGradient
       id="linearGradient5838-1-5-1">
      <stop
         id="stop5840-1-8-1"
         style="stop-color:#ff0000;stop-opacity:1"
         offset="0" />
      <stop
         id="stop5842-0-8-6"
         style="stop-color:#ff0000;stop-opacity:0"
         offset="1" />
    </linearGradient>
    <linearGradient
       x1="1135.5919"
       y1="22.520924"
       x2="1195.8365"
       y2="91.092361"
       id="linearGradient4467-1-9"
       xlink:href="#linearGradient5846-8-3-0"
       gradientUnits="userSpaceOnUse" />
    <linearGradient
       id="linearGradient5846-8-3-0">
      <stop
         id="stop5848-5-8-9"
         style="stop-color:#00ff00;stop-opacity:1"
         offset="0" />
      <stop
         id="stop5850-9-2-6"
         style="stop-color:#00ff00;stop-opacity:0"
         offset="1" />
    </linearGradient>
    <linearGradient
       x1="1237.1793"
       y1="25.060608"
       x2="1181.8683"
       y2="78.393944"
       id="linearGradient4469-9-7"
       xlink:href="#linearGradient5854-0-7-9"
       gradientUnits="userSpaceOnUse" />
    <linearGradient
       id="linearGradient5854-0-7-9">
      <stop
         id="stop5856-79-0-0"
         style="stop-color:#0000ff;stop-opacity:1"
         offset="0" />
      <stop
         id="stop5858-9-4-7"
         style="stop-color:#0000ff;stop-opacity:0"
         offset="1" />
    </linearGradient>
    <linearGradient
       x1="1187.6556"
       y1="157.1241"
       x2="1186.9478"
       y2="72.044724"
       id="linearGradient3538"
       xlink:href="#linearGradient5838-1-1"
       gradientUnits="userSpaceOnUse" />
    <linearGradient
       x1="1135.5919"
       y1="22.520924"
       x2="1195.8365"
       y2="91.092361"
       id="linearGradient3540"
       xlink:href="#linearGradient5846-8-9"
       gradientUnits="userSpaceOnUse" />
    <linearGradient
       x1="1237.1793"
       y1="25.060608"
       x2="1181.8683"
       y2="78.393944"
       id="linearGradient3542"
       xlink:href="#linearGradient5854-0-9"
       gradientUnits="userSpaceOnUse" />
    <clipPath
       id="clipPath3593">
      <path
         d="m 130,472.36218 -40,69.28203 -80,0 -40,-69.28203 40,-69.28203 80,0 z"
         transform="matrix(2.7327202,0,0,2.7320848,175.32631,-1165.5176)"
         id="path3595"
         style="fill:#ffffff;fill-opacity:1;stroke:#000000;stroke-width:3;stroke-linecap:butt;stroke-linejoin:round;stroke-miterlimit:4;stroke-opacity:1;stroke-dasharray:none" />
    </clipPath>
  </defs>
  <metadata
     id="metadata3585">
    <rdf:RDF>
      <cc:Work
         rdf:about="">
        <dc:format>image/svg+xml</dc:format>
        <dc:type
           rdf:resource="http://purl.org/dc/dcmitype/StillImage" />
        <dc:title></dc:title>
      </cc:Work>
    </rdf:RDF>
  </metadata>
  <g
     id="g3155">
    <g
       id="g3054">
      <g
         transform="translate(-181.60379,-275.59725)"
         id="layer2"
         style="display:inline">
        <g
           transform="translate(101.98123,219.10281)"
           id="layer1-5"
           style="display:inline">
          <g
             transform="matrix(0.99999667,-0.0025789,0.0025789,0.99999667,-1067.6703,10.55226)"
             id="g4458">
            <path
               d="m 1230.4762,160.93362 -89.3048,-0.24014 -44.4445,-77.460312 44.8604,-77.2201765 89.3048,0.2401367 44.4445,77.4603128 z"
               transform="matrix(2.0493517,0,0,2.0493517,-1099.3252,42.87006)"
               id="path5774-3-7-5-2-5"
               style="fill:#ffffff;fill-opacity:1;stroke:none" />
            <path
               d="m 1230.4762,160.93362 -89.3048,-0.24014 -44.4445,-77.460312 44.8604,-77.2201765 89.3048,0.2401367 44.4445,77.4603128 z"
               transform="matrix(2.0493517,0,0,2.0493517,-1099.3252,42.87006)"
               id="path5774-3-1"
               style="fill:url(#linearGradient4465-3);fill-opacity:1;stroke:none" />
            <path
               d="m 1230.4762,160.93362 -89.3048,-0.24014 -44.4445,-77.460312 44.8604,-77.2201765 89.3048,0.2401367 44.4445,77.4603128 z"
               transform="matrix(2.0493517,0,0,2.0493517,-1099.3252,42.87006)"
               id="path5774-3-7-4"
               style="fill:url(#linearGradient4467-1);fill-opacity:1;stroke:none" />
            <path
               d="m 1230.4762,160.93362 -89.3048,-0.24014 -44.4445,-77.460312 44.8604,-77.2201765 89.3048,0.2401367 44.4445,77.4603128 z"
               transform="matrix(2.0493517,0,0,2.0493517,-1099.3252,42.87006)"
               id="path5774-3-7-5-2"
               style="fill:url(#linearGradient4469-9);fill-opacity:1;stroke:none" />
            <path
               d="m 1230.4762,160.93362 -89.3048,-0.24014 -44.4445,-77.460312 44.8604,-77.2201765 89.3048,0.2401367 44.4445,77.4603128 z"
               transform="matrix(2.0493517,0,0,2.0493517,-1097.7512,39.89603)"
               id="path5774-3-7-5-1-9"
               style="fill:none;stroke:#000000;stroke-width:3;stroke-miterlimit:4;stroke-opacity:1;stroke-dasharray:none" />
          </g>
        </g>
      </g>
      <g
         transform="translate(-181.60379,-275.59725)"
         id="layer3"
         style="display:inline">
        <g
           transform="matrix(0.83555434,0,0,0.83555434,107.03403,332.72157)"
           clip-path="url(#clipPath3593)"
           id="DNA_Helix"
           style="display:inline">
          <path
             d="m 382.21875,56.9375 c -11.74214,-0.229446 -23.4061,0.799586 -34.71875,2.53125 -16.38725,2.508447 -33.29675,6.214038 -49.25,13.3125 -17.915,7.97135 -33.52182,19.435568 -47.96875,30.9375 -11.93105,9.49892 -21.80412,20.4232 -31.5,30.53125 -7.60337,7.9266 -16.14467,16.10554 -23.375,26.25 -7.78155,10.91783 -12.00135,22.29415 -17.4375,31.09375 -5.29197,8.56623 -8.85548,16.18522 -13.40625,20.25 -4.14932,3.70619 -8.5852,6.22735 -11.28125,6.46875 -0.82733,0.0741 -5.02212,-2.40007 -13.15625,-4.96875 a 10.011834,10.011834 0 1 0 -6.03125,19.09375 c 3.23943,1.02298 9.9164,6.8021 20.96875,5.8125 10.10541,-0.90482 17.37618,-6.64425 22.8125,-11.5 8.94643,-7.991 12.90553,-17.8261 17.125,-24.65625 6.81753,-11.03568 10.93693,-21.90046 16.6875,-29.96875 5.81119,-8.15334 13.58014,-15.74213 21.53125,-24.03125 9.93808,-10.36055 19.27296,-20.55161 29.53125,-28.71875 14.00093,-11.14685 28.3176,-21.50141 43.625,-28.3125 13.49887,-6.006378 28.67858,-9.474537 44.15625,-11.84375 13.93473,-2.133035 28.00862,-3.022189 41.53125,-1.71875 16.72349,1.611966 33.67496,6.726632 50.9375,12.15625 12.15263,3.822384 24.42917,10.018696 38.125,15.09375 2.46844,0.91469 6.11218,3.12163 10.6875,5.3125 4.57532,2.19087 10.72414,4.56818 17.9375,3.25 4.37409,-0.79934 6.98782,-3.37886 8.34375,-4.8125 1.35593,-1.43364 1.9861,-2.14466 1.625,-1.84375 a 10.001,10.001 0 1 0 -12.78125,-15.375 c -1.39856,1.165465 -1.66373,1.622285 -2.1875,2.25 -0.98829,-0.147036 -2.25734,-0.515893 -4.3125,-1.5 C 497.29561,90.52677 493.31592,87.946677 488.0625,86 475.80415,81.457614 463.25089,75.076106 449,70.59375 c -17.36366,-5.461422 -35.62358,-11.129306 -55.03125,-13 -3.92455,-0.378285 -7.83595,-0.579768 -11.75,-0.65625 z"
             id="path5767-5"
             style="font-size:medium;font-style:normal;font-variant:normal;font-weight:normal;font-stretch:normal;text-indent:0;text-align:start;text-decoration:none;line-height:normal;letter-spacing:normal;word-spacing:normal;text-transform:none;direction:ltr;block-progression:tb;writing-mode:lr-tb;text-anchor:start;baseline-shift:baseline;color:#000000;fill:#000000;fill-opacity:1;stroke:none;stroke-width:20;marker:none;visibility:visible;display:inline;overflow:visible;enable-background:accumulate;font-family:Sans;-inkscape-font-specification:Sans" />
          <path
             d="m 509.03125,47.9375 c 0,0 -38.93847,49.921295 -59.59375,72.03125 -10.75559,11.51307 -22.05498,22.46532 -34.0625,32.34375 -11.12424,9.15176 -21.03271,18.21479 -31.6875,22.78125 -8.53126,3.65636 -18.56677,5.31238 -28.5625,5.46875 -9.90461,0.15495 -20.18504,-1.65197 -29.90625,-4.875 -13.81012,-4.57869 -27.16766,-14.91797 -43.6875,-22.875 -20.86847,-10.0516 -42.15512,-22.03921 -66.125,-29.28125 -14.55474,-4.39744 -29.60306,-6.72866 -44.5,-7.59375 -12.00959,-0.69742 -24.31785,-0.26395 -36.46875,1.9375 -12.79871,2.31881 -24.86218,6.60136 -36.21875,11.375 C 78.326503,137.61154 60.917624,149.11685 43.5,158.40625 l 9.40625,17.625 c 18.498916,-9.86608 35.429675,-20.93193 53.0625,-28.34375 10.63407,-4.46994 21.35768,-8.19121 32.03125,-10.125 10.26284,-1.85937 21.01927,-2.27941 31.75,-1.65625 13.59434,0.78945 27.11014,2.89334 39.875,6.75 21.17934,6.39894 41.5946,17.77192 63.21875,28.1875 13.87346,6.68235 27.88271,17.77471 46.09375,23.8125 11.57661,3.83817 23.96949,6.10228 36.5,5.90625 11.95511,-0.18703 24.47788,-2.10199 36.125,-7.09375 14.99331,-6.42588 26.10631,-17.14229 36.53125,-25.71875 12.84382,-10.56643 24.75604,-22.12263 35.96875,-34.125 22.30118,-23.87176 60.75,-73.40625 60.75,-73.40625 L 509.03125,47.9375 z"
             id="path5769-4"
             style="font-size:medium;font-style:normal;font-variant:normal;font-weight:normal;font-stretch:normal;text-indent:0;text-align:start;text-decoration:none;line-height:normal;letter-spacing:normal;word-spacing:normal;text-transform:none;direction:ltr;block-progression:tb;writing-mode:lr-tb;text-anchor:start;baseline-shift:baseline;color:#000000;fill:#000000;fill-opacity:1;stroke:none;stroke-width:20;marker:none;visibility:visible;display:inline;overflow:visible;enable-background:accumulate;font-family:Sans;-inkscape-font-specification:Sans" />
          <path
             d="m 460.875,79.875 a 10.001,10.001 0 0 0 -9.25,7.40625 l -9.875,35.03125 a 10.001,10.001 0 1 0 19.25,5.40625 l 9.875,-35 a 10.001,10.001 0 0 0 -10,-12.84375 z"
             id="path5771-5"
             style="font-size:medium;font-style:normal;font-variant:normal;font-weight:normal;font-stretch:normal;text-indent:0;text-align:start;text-decoration:none;line-height:normal;letter-spacing:normal;word-spacing:normal;text-transform:none;direction:ltr;block-progression:tb;writing-mode:lr-tb;text-anchor:start;baseline-shift:baseline;color:#000000;fill:#000000;fill-opacity:1;fill-rule:nonzero;stroke:none;stroke-width:20;marker:none;visibility:visible;display:inline;overflow:visible;enable-background:accumulate;font-family:Sans;-inkscape-font-specification:Sans" />
          <path
             d="m 415.40625,65.5 a 10.001,10.001 0 0 0 -9.9375,10.03125 l -0.90625,85.28125 a 10.001,10.001 0 1 0 20,0.21875 L 425.46875,75.75 A 10.001,10.001 0 0 0 415.40625,65.5 z"
             id="path5773-8"
             style="font-size:medium;font-style:normal;font-variant:normal;font-weight:normal;font-stretch:normal;text-indent:0;text-align:start;text-decoration:none;line-height:normal;letter-spacing:normal;word-spacing:normal;text-transform:none;direction:ltr;block-progression:tb;writing-mode:lr-tb;text-anchor:start;baseline-shift:baseline;color:#000000;fill:#000000;fill-opacity:1;fill-rule:nonzero;stroke:none;stroke-width:20;marker:none;visibility:visible;display:inline;overflow:visible;enable-background:accumulate;font-family:Sans;-inkscape-font-specification:Sans" />
          <path
             d="m 361.65625,64.4375 a 7.50075,7.50075 0 0 0 -7.46875,8.875 l 19.75,114.03125 a 7.5008626,7.5008626 0 1 0 14.78125,-2.5625 L 368.96875,70.75 a 7.50075,7.50075 0 0 0 -7.3125,-6.3125 z"
             id="path5775-1"
             style="font-size:medium;font-style:normal;font-variant:normal;font-weight:normal;font-stretch:normal;text-indent:0;text-align:start;text-decoration:none;line-height:normal;letter-spacing:normal;word-spacing:normal;text-transform:none;direction:ltr;block-progression:tb;writing-mode:lr-tb;text-anchor:start;baseline-shift:baseline;color:#000000;fill:#000000;fill-opacity:1;fill-rule:nonzero;stroke:none;stroke-width:15;marker:none;visibility:visible;display:inline;overflow:visible;enable-background:accumulate;font-family:Sans;-inkscape-font-specification:Sans" />
          <path
             d="m 310.15625,71.625 a 7.50075,7.50075 0 0 0 -6.875,9.90625 l 35,107.75 a 7.5057432,7.5057432 0 1 0 14.28125,-4.625 l -35.03125,-107.75 a 7.50075,7.50075 0 0 0 -7.375,-5.28125 z"
             id="path5777-4"
             style="font-size:medium;font-style:normal;font-variant:normal;font-weight:normal;font-stretch:normal;text-indent:0;text-align:start;text-decoration:none;line-height:normal;letter-spacing:normal;word-spacing:normal;text-transform:none;direction:ltr;block-progression:tb;writing-mode:lr-tb;text-anchor:start;baseline-shift:baseline;color:#000000;fill:#000000;fill-opacity:1;fill-rule:nonzero;stroke:none;stroke-width:15;marker:none;visibility:visible;display:inline;overflow:visible;enable-background:accumulate;font-family:Sans;-inkscape-font-specification:Sans" />
          <path
             d="m 264.09375,103.96875 a 7.50075,7.50075 0 0 0 -5.5,12.0625 l 51.1875,68.25 a 7.50075,7.50075 0 1 0 12,-9 l -51.1875,-68.25 a 7.50075,7.50075 0 0 0 -6.5,-3.0625 z"
             id="path5779-8"
             style="font-size:medium;font-style:normal;font-variant:normal;font-weight:normal;font-stretch:normal;text-indent:0;text-align:start;text-decoration:none;line-height:normal;letter-spacing:normal;word-spacing:normal;text-transform:none;direction:ltr;block-progression:tb;writing-mode:lr-tb;text-anchor:start;baseline-shift:baseline;color:#000000;fill:#000000;fill-opacity:1;fill-rule:nonzero;stroke:none;stroke-width:15;marker:none;visibility:visible;display:inline;overflow:visible;enable-background:accumulate;font-family:Sans;-inkscape-font-specification:Sans" />
          <path
             d="m 197.78125,121.90625 a 7.50075,7.50075 0 0 0 -6.875,5.65625 l -19.75,73.625 a 7.5044258,7.5044258 0 1 0 14.5,3.875 l 19.75,-73.625 a 7.50075,7.50075 0 0 0 -7.625,-9.53125 z"
             id="path5781-5"
             style="font-size:medium;font-style:normal;font-variant:normal;font-weight:normal;font-stretch:normal;text-indent:0;text-align:start;text-decoration:none;line-height:normal;letter-spacing:normal;word-spacing:normal;text-transform:none;direction:ltr;block-progression:tb;writing-mode:lr-tb;text-anchor:start;baseline-shift:baseline;color:#000000;fill:#000000;fill-opacity:1;fill-rule:nonzero;stroke:none;stroke-width:15;marker:none;visibility:visible;display:inline;overflow:visible;enable-background:accumulate;font-family:Sans;-inkscape-font-specification:Sans" />
          <path
             d="m 150.53125,119.21875 a 7.50075,7.50075 0 0 0 -7.4375,8.28125 l 9,98.75 a 7.50075,7.50075 0 1 0 14.9375,-1.34375 l -9,-98.78125 a 7.50075,7.50075 0 0 0 -7.5,-6.90625 z"
             id="path5783-4"
             style="font-size:medium;font-style:normal;font-variant:normal;font-weight:normal;font-stretch:normal;text-indent:0;text-align:start;text-decoration:none;line-height:normal;letter-spacing:normal;word-spacing:normal;text-transform:none;direction:ltr;block-progression:tb;writing-mode:lr-tb;text-anchor:start;baseline-shift:baseline;color:#000000;fill:#000000;fill-opacity:1;fill-rule:nonzero;stroke:none;stroke-width:15;marker:none;visibility:visible;display:inline;overflow:visible;enable-background:accumulate;font-family:Sans;-inkscape-font-specification:Sans" />
        </g>
      </g>
    </g>
    <g
       transform="translate(-1127.0918,-69.310702)"
       id="text6191-7"
       style="font-size:70.31442261px;font-style:normal;font-variant:normal;font-weight:normal;font-stretch:normal;text-align:start;line-height:125%;letter-spacing:0px;word-spacing:0px;writing-mode:lr-tb;text-anchor:start;fill:#000000;fill-opacity:1;stroke:none;font-family:Sawasdee;-inkscape-font-specification:Sawasdee">
      <path
         d="m 1251.6595,111.42015 3.09,0 0,51.25949 -3.09,0 0,-28.2219 -30.2476,0 0,28.2219 -3.09,0 0,-51.25949 3.09,0 0,19.9476 30.2476,0 0,-19.9476"
         id="path3022" />
      <path
         d="m 1261.5818,127.86576 3.1586,0 11.9823,30.72823 11.7077,-30.72823 3.2959,0 -20.0162,52.70149 -3.296,0 6.7636,-17.81894 -13.5959,-34.88255"
         id="path3024" />
      <path
         d="m 1301.0993,162.67964 -3.296,0 c 0.5722,-1.14444 0.8584,-2.67799 0.8584,-4.60065 l 0,-46.65884 3.0899,0 0,25.37225 c 0.8469,-2.49485 2.5407,-4.69218 5.0814,-6.59198 2.5635,-1.92262 5.1728,-2.88395 7.8279,-2.88399 2.9069,4e-5 5.5734,0.82403 7.9997,2.47199 2.4262,1.62514 4.3259,3.81102 5.6993,6.55765 1.3962,2.74668 2.0943,5.71078 2.0943,8.8923 0,3.20445 -0.6981,6.19143 -2.0943,8.96097 -1.3734,2.74666 -3.2731,4.93254 -5.6993,6.55764 -2.4263,1.62511 -5.0928,2.43766 -7.9997,2.43766 -2.6093,0 -5.1957,-0.97277 -7.7593,-2.91832 -2.5635,-1.96844 -4.2802,-4.14287 -5.15,-6.52331 l 0,4.32598 c 0,1.55644 -0.2174,3.08999 -0.6523,4.60065 m 4.4633,-27.94723 c -2.5406,2.88401 -3.811,6.38599 -3.811,10.50596 0,4.12 1.2704,7.63343 3.811,10.5403 2.5407,2.90688 5.5734,4.36032 9.0983,4.36031 3.4791,1e-5 6.5004,-1.45343 9.064,-4.36031 2.5635,-2.92976 3.8453,-6.44319 3.8453,-10.5403 0,-4.11997 -1.2818,-7.62195 -3.8453,-10.50596 -2.5636,-2.88396 -5.5849,-4.32596 -9.064,-4.32599 -3.5249,3e-5 -6.5576,1.44203 -9.0983,4.32599"
         id="path3026" />
      <path
         d="m 1339.5525,127.86576 3.296,0 c 0.4349,1.5107 0.6523,3.04425 0.6523,4.60065 l 0,4.32599 c 0.5265,-1.76241 1.751,-3.59352 3.6737,-5.49332 1.9226,-1.89973 3.8567,-3.22728 5.8023,-3.98265 l 3.4333,2.43766 c -2.0142,3e-5 -4.0284,0.70958 -6.0426,2.12866 -1.9914,1.41913 -3.6394,3.30746 -4.944,5.66498 -1.2818,2.33468 -1.9227,4.74945 -1.9227,7.24431 l 0,17.8876 -3.09,0 0,-30.21323 c 0,-1.9684 -0.2861,-3.50195 -0.8583,-4.60065"
         id="path3028" />
      <path
         d="m 1361.4228,119.62579 c 0,-0.75529 0.2632,-1.40762 0.7896,-1.95699 0.5494,-0.54929 1.2131,-0.82395 1.9914,-0.824 0.7553,5e-5 1.3962,0.27471 1.9226,0.824 0.5493,0.54937 0.824,1.2017 0.824,1.95699 0,0.77826 -0.2632,1.44204 -0.7896,1.99133 -0.5265,0.52648 -1.1788,0.7897 -1.957,0.78966 -0.7783,4e-5 -1.442,-0.26318 -1.9914,-0.78966 -0.5264,-0.54929 -0.7896,-1.21307 -0.7896,-1.99133 m 4.326,43.05385 -3.09,0 0,-34.81388 3.09,0 0,34.81388"
         id="path3030" />
      <path
         d="m 1408.3219,162.67964 -3.2959,0 c -0.3892,-1.35044 -0.5837,-2.88399 -0.5837,-4.60065 l 0,-4.32598 c -0.8698,2.38044 -2.5979,4.55487 -5.1843,6.52331 -2.5636,1.94555 -5.1386,2.91832 -7.725,2.91832 -2.9069,0 -5.5849,-0.81255 -8.034,-2.43766 -2.4262,-1.6251 -4.3374,-3.81098 -5.7336,-6.55764 -1.3733,-2.76954 -2.06,-5.75652 -2.06,-8.96097 0,-3.20441 0.6867,-6.16851 2.06,-8.8923 1.3962,-2.74663 3.3074,-4.93251 5.7336,-6.55765 2.4491,-1.64796 5.1271,-2.47195 8.034,-2.47199 2.6322,4e-5 5.2301,0.96137 7.7936,2.88399 2.5636,1.8998 4.2688,4.09713 5.1157,6.59198 l 0,-25.37225 3.0556,0 0,46.65884 c 0,1.96844 0.2747,3.50199 0.824,4.60065 m -7.7249,-6.90097 c 2.5635,-2.90687 3.8453,-6.4203 3.8453,-10.5403 0,-4.11997 -1.2704,-7.62195 -3.811,-10.50596 -2.5407,-2.88396 -5.5734,-4.32596 -9.0983,-4.32599 -3.502,3e-5 -6.5348,1.44203 -9.0983,4.32599 -2.5636,2.88401 -3.8453,6.38599 -3.8453,10.50596 0,4.09711 1.2817,7.61054 3.8453,10.5403 2.5635,2.90688 5.5963,4.36032 9.0983,4.36031 3.502,1e-5 6.5233,-1.45343 9.064,-4.36031"
         id="path3032" />
    </g>
    <g
       transform="translate(-1122.5204,-85.191044)"
       id="text6195-9"
       style="font-size:67.28687286px;font-style:normal;font-variant:normal;font-weight:normal;font-stretch:normal;text-align:start;line-height:125%;letter-spacing:0px;word-spacing:0px;writing-mode:lr-tb;text-anchor:start;fill:#000000;fill-opacity:1;stroke:none;font-family:Sawasdee;-inkscape-font-specification:Sawasdee">
      <path
         d="m 1261.7094,361.31186 2.3655,1.60989 c -2.278,3.13217 -5.1692,5.60724 -8.6737,7.42521 -3.5046,1.79607 -7.2829,2.6941 -11.3349,2.6941 -3.3732,0 -6.593,-0.6571 -9.6594,-1.97129 -3.0665,-1.3142 -5.7058,-3.08836 -7.918,-5.3225 -2.2123,-2.23413 -3.9755,-4.89537 -5.2897,-7.98375 -1.3142,-3.08834 -1.9713,-6.33002 -1.9713,-9.72505 0,-3.39498 0.6571,-6.63666 1.9713,-9.72506 1.3142,-3.08832 3.0774,-5.74957 5.2897,-7.98374 2.2122,-2.23409 4.8515,-4.00826 7.918,-5.3225 3.0664,-1.31415 6.2862,-1.97125 9.6594,-1.97129 4.0301,4e-5 7.7975,0.91998 11.3021,2.75981 3.5044,1.81802 6.4066,4.30404 8.7065,7.45806 l -2.3655,1.74132 c -2.0371,-2.73787 -4.5998,-4.89534 -7.6881,-6.47242 -3.0665,-1.5989 -6.3848,-2.39837 -9.955,-2.39841 -3.9865,4e-5 -7.6662,0.98569 -11.0393,2.95694 -3.3512,1.97134 -6.0015,4.65449 -7.9509,8.04946 -1.9494,3.37313 -2.9241,7.06383 -2.9241,11.0721 0,2.97887 0.5695,5.82629 1.7085,8.54228 1.1608,2.71602 2.716,5.05967 4.6654,7.03095 1.9494,1.97131 4.2821,3.54834 6.9981,4.73111 2.716,1.16088 5.5634,1.74132 8.5423,1.74131 3.5702,1e-5 6.8885,-0.79946 9.955,-2.39841 3.0883,-1.59893 5.651,-3.7783 7.6881,-6.53812"
         id="path3035" />
      <path
         d="m 1273.5043,372.67966 0,-49.0524 2.9569,0 0,25.19973 c 1.139,-2.67218 2.7927,-5.00487 4.9611,-6.9981 2.1684,-1.99317 4.2602,-2.98977 6.2753,-2.9898 2.2341,3e-5 4.1178,0.62428 5.651,1.87273 1.5551,1.24852 2.6722,2.84746 3.3512,4.79682 0.7009,1.94942 1.0514,4.15069 1.0514,6.60384 l 0,20.56718 -2.8912,0 0,-20.56718 c -10e-5,-1.20466 -0.1205,-2.36553 -0.3614,-3.48262 -0.2191,-1.11705 -0.5805,-2.21221 -1.0843,-3.2855 -0.5038,-1.07323 -1.2594,-1.92745 -2.2669,-2.56268 -0.9857,-0.65707 -2.1575,-0.98562 -3.5155,-0.98565 -1.2923,3e-5 -2.6394,0.50381 -4.0412,1.51133 -1.3799,1.00758 -2.5846,2.24511 -3.614,3.71261 -1.0076,1.44564 -1.8509,2.98982 -2.5298,4.63254 -0.6572,1.64276 -0.9857,3.08838 -0.9857,4.33685 l 0,16.6903 -2.9569,0"
         id="path3037" />
      <path
         d="m 1310.4989,353.19669 24.2141,0 c -0.6133,-3.30737 -2.059,-6.03433 -4.3369,-8.18087 -2.2779,-2.1465 -4.8844,-3.21976 -7.8194,-3.21979 -2.9132,3e-5 -5.5087,1.07329 -7.7867,3.21979 -2.256,2.14654 -3.6797,4.8735 -4.2711,8.18087 m 27.4339,2.79267 -27.8939,0 c 0,3.9207 1.2266,7.24999 3.6798,9.98789 2.4531,2.73792 5.3553,4.10687 8.7065,4.10687 2.2122,0 4.3807,-0.59139 6.5053,-1.77417 2.1246,-1.18277 3.7454,-2.77075 4.8625,-4.76396 l 2.5956,1.47847 c -1.3362,2.38746 -3.3074,4.34781 -5.9139,5.88103 -2.6065,1.51133 -5.2897,2.26699 -8.0495,2.26699 -2.7817,0 -5.3444,-0.77757 -7.688,-2.3327 -2.3218,-1.55513 -4.1507,-3.64689 -5.4868,-6.27529 -1.3142,-2.65028 -1.9713,-5.50866 -1.9713,-8.57513 0,-3.04454 0.6681,-5.88101 2.0042,-8.50943 1.358,-2.62836 3.2088,-4.72012 5.5524,-6.27528 2.3656,-1.57701 4.9392,-2.36553 7.721,-2.36556 2.6283,3e-5 5.0705,0.71189 7.3266,2.13557 2.2779,1.40184 4.1178,3.29647 5.5196,5.6839 1.4018,2.38748 2.2232,5.00492 2.4641,7.85233 l 0.066,1.47847"
         id="path3039" />
      <path
         d="m 1371.4776,363.48028 2.497,1.47847 c -1.358,2.45317 -3.1869,4.41352 -5.4868,5.88103 -2.2779,1.46752 -4.753,2.20128 -7.4252,2.20128 -2.7817,0 -5.3444,-0.76661 -7.688,-2.29984 -2.3218,-1.55513 -4.1507,-3.64689 -5.4868,-6.27529 -1.3142,-2.62839 -1.9713,-5.47581 -1.9713,-8.54228 0,-3.08834 0.6571,-5.94672 1.9713,-8.57514 1.3361,-2.62836 3.165,-4.70917 5.4868,-6.24243 2.3436,-1.5551 4.9063,-2.33266 7.688,-2.3327 2.6722,4e-5 5.1473,0.73379 7.4252,2.20128 2.2999,1.46755 4.1288,3.42789 5.4868,5.88103 l -2.497,1.47847 c -1.1609,-2.01507 -2.6612,-3.60306 -4.5011,-4.76396 -1.818,-1.18275 -3.7893,-1.77414 -5.9139,-1.77417 -3.3512,3e-5 -6.2534,1.35804 -8.7065,4.07401 -2.4532,2.71603 -3.6798,6.03438 -3.6798,9.95504 0,3.94261 1.2266,7.29381 3.6798,10.05361 2.4531,2.75982 5.3553,4.13972 8.7065,4.13972 2.1246,0 4.1069,-0.58044 5.9468,-1.74131 1.8398,-1.16087 3.3292,-2.75981 4.4682,-4.79682"
         id="path3041" />
      <path
         d="m 1386.4595,372.67966 -2.957,0 0,-49.0524 2.957,0 0,29.10946 14.7518,-13.37195 4.4355,0 -14.062,12.74771 17.6431,20.56718 -3.8111,0 -15.9675,-18.59589 -2.9898,2.66125 0,15.93464"
         id="path3043" />
    </g>
  </g>
</svg>
